<svg viewBox="0 0 32 32" xmlns="http://www.w3.org/2000/svg">
    <g stroke-width="0" />
    <g stroke-linecap="round" stroke-linejoin="round" />
    <path
        d="M30.156 26.492 23.945 3.308a2.76 2.76 0 0 0-3.386-1.94l.019-.004-2.897.776a2.7 2.7 0 0 0-.86.42l.008-.005a2.75 2.75 0 0 0-2.33-1.306h-2.998c-.789.001-1.5.337-1.998.873l-.002.002a2.73 2.73 0 0 0-2-.874h-3A2.754 2.754 0 0 0 1.751 4v24a2.754 2.754 0 0 0 2.75 2.75h3a2.73 2.73 0 0 0 1.998-.873l.002-.002a2.73 2.73 0 0 0 2 .875h2.998a2.754 2.754 0 0 0 2.75-2.75V11.152l4.699 17.54a2.76 2.76 0 0 0 2.656 2.037h.005q.378-.001.725-.098l-.019.005 2.898-.775a2.757 2.757 0 0 0 1.938-3.386l.005.019zM18.415 9.708l5.31-1.423 3.753 14.007-5.311 1.422zm-.347-6.118 2.896-.776a1.25 1.25 0 0 1 1.529.875l.002.009.841 3.139-5.311 1.423-.778-2.905V4.3c.153-.347.449-.607.812-.708zM11.5 2.75h2.998c.69.001 1.249.56 1.25 1.25v3.249l-5.498.001V4c.001-.69.56-1.249 1.25-1.25m-2.75 20.5h-5.5V8.75l5.5-.001zm1.5-14.5 5.498-.001V23.25H10.25zm-5.75-6h3c.69.001 1.249.56 1.25 1.25v3.249l-5.5.001V4c.001-.69.56-1.249 1.25-1.25m3 26.5h-3A1.25 1.25 0 0 1 3.25 28v-3.25h5.5V28a1.25 1.25 0 0 1-1.25 1.25m6.998 0H11.5A1.25 1.25 0 0 1 10.25 28v-3.25h5.498V28a1.25 1.25 0 0 1-1.25 1.25m14.082-1.424c-.164.285-.43.495-.747.582l-.009.002-2.898.775a1.255 1.255 0 0 1-1.527-.874l-.002-.009-.841-3.14 5.311-1.422.841 3.14a1.23 1.23 0 0 1-.131.951l.003-.006z" />
</svg>