<svg xmlns="http://www.w3.org/2000/svg" width="20" height="22" viewBox="0 0 20 22" fill="none">
    <path fill-rule="evenodd" clip-rule="evenodd"
        d="M13.359 1.37a1.32 1.32 0 0 0-1.914-.508c-.455.303-.81.736-1.085 1.161a9 9 0 0 0-.752 1.473c-.44 1.061-.81 2.334-1.109 3.609a41 41 0 0 0-.809 4.725 3.5 3.5 0 0 1-1.247-1.408c-.433-.898-.525-2.025-.525-3.503a1.32 1.32 0 0 0-2.253-.933 9.2 9.2 0 0 0-2.706 6.533 9.239 9.239 0 1 0 15.772-6.533c-.781-.78-1.293-1.3-1.779-1.937-.479-.628-.956-1.403-1.593-2.679m-.363 16.587a3.96 3.96 0 0 1-6.758-2.799s1.16.66 3.3.66c0-1.32.66-5.279 1.65-5.939.66 1.32 1.037 1.707 1.81 2.48a3.96 3.96 0 0 1 0 5.599"
        fill="#FF7C37" />
</svg>