<svg viewBox="0 0 32 32" xmlns="http://www.w3.org/2000/svg">
    <g stroke-width="0" />
    <g stroke-linecap="round" stroke-linejoin="round" />
    <path
        d="M28 5.25H4A2.754 2.754 0 0 0 1.25 8v16A2.754 2.754 0 0 0 4 26.75h24A2.754 2.754 0 0 0 30.75 24V8A2.754 2.754 0 0 0 28 5.25M4 6.75h24c.69.001 1.249.56 1.25 1.25v1.25H2.75V8c.001-.69.56-1.249 1.25-1.25m24 18.5H4A1.25 1.25 0 0 1 2.75 24V10.75h26.5V24A1.25 1.25 0 0 1 28 25.25M9.645 17.628a2.635 2.635 0 1 0-2.635-2.635 2.637 2.637 0 0 0 2.635 2.635m0-3.77a1.135 1.135 0 1 1-1.135 1.135 1.136 1.136 0 0 1 1.135-1.135m0 4.953a4.55 4.55 0 0 0-4.41 3.52l-.006.031a.75.75 0 0 0 1.464.325l.001-.005c.309-1.366 1.512-2.371 2.951-2.371s2.642 1.005 2.947 2.351l.004.02a.751.751 0 0 0 1.464-.326l.001.005a4.55 4.55 0 0 0-4.414-3.551h-.001zM26 13.25h-8a.75.75 0 0 0 0 1.5h8a.75.75 0 0 0 0-1.5m0 4h-8a.75.75 0 0 0 0 1.5h8a.75.75 0 0 0 0-1.5m0 4h-8a.75.75 0 0 0 0 1.5h8a.75.75 0 0 0 0-1.5" />
</svg>