<svg viewBox="0 0 24 24" fill="none" xmlns="http://www.w3.org/2000/svg" stroke="414141">
    <g stroke-width="0" />
    <g stroke-linecap="round" stroke-linejoin="round" />
    <path
        d="m3.028 10 7.197 4.817c.641.427.962.641 1.309.724a2 2 0 0 0 .932 0c.346-.083.667-.297 1.309-.724L20.97 10M10.298 4.069l-5.8 3.642c-.547.344-.82.515-1.019.748a2 2 0 0 0-.388.702C3 9.452 3 9.775 3 10.421V16.8c0 1.12 0 1.68.218 2.108a2 2 0 0 0 .874.874C4.52 20 5.08 20 6.2 20h11.6c1.12 0 1.68 0 2.108-.218a2 2 0 0 0 .874-.874C21 18.48 21 17.92 21 16.8v-6.379c0-.646 0-.969-.091-1.26a2 2 0 0 0-.388-.702c-.199-.233-.472-.404-1.02-.748l-5.8-3.642c-.616-.388-.925-.582-1.256-.657a2 2 0 0 0-.89 0c-.331.075-.64.27-1.257.657"
        stroke="#414141" stroke-width="2" stroke-linecap="round" stroke-linejoin="round" />
</svg>