<svg xmlns="http://www.w3.org/2000/svg" width="20" height="21" viewBox="0 0 20 21" fill="none">
    <path
        d="M7.548 18.118a.99.99 0 1 1 0 1.98.99.99 0 0 1 0-1.98m6.93 0a.99.99 0 1 1 0 1.98.99.99 0 0 1 0-1.98M.818 1.191a.99.99 0 0 1 1.28-.266l.104.069 1.69 1.267c.288.216.512.506.647.84l.06.169h12.716a1.98 1.98 0 0 1 1.977 2.078l-.012.147-.453 3.618a4.95 4.95 0 0 1-4.276 4.296l-.224.023-7.239.604.257 1.112h8.617a.99.99 0 0 1 .115 1.973l-.115.007H7.345A1.98 1.98 0 0 1 5.46 15.75l-.043-.155-2.712-11.75-1.69-1.267A.99.99 0 0 1 .817 1.19"
        fill="#78909C" />
</svg>