<?xml version="1.0" standalone="no"?>
<!DOCTYPE svg PUBLIC "-//W3C//DTD SVG 20010904//EN"
 "http://www.w3.org/TR/2001/REC-SVG-20010904/DTD/svg10.dtd">
<svg version="1.0" xmlns="http://www.w3.org/2000/svg"
 width="285.000000pt" height="342.000000pt" viewBox="0 0 285.000000 342.000000"
 preserveAspectRatio="xMidYMid meet">

<g transform="translate(0.000000,342.000000) scale(0.100000,-0.100000)"
fill="#000000" stroke="none">
<path d="M900 3182 l-20 -25 39 -42 c97 -106 127 -259 77 -397 -43 -119 -122
-222 -401 -528 -44 -48 -188 -246 -230 -315 -41 -69 -78 -177 -104 -305 -33
-162 -34 -214 -11 -370 31 -210 71 -326 163 -480 103 -173 182 -258 327 -352
106 -69 143 -87 250 -126 170 -61 325 -89 530 -97 134 -6 157 -2 365 60 177
52 252 90 385 191 149 114 219 216 299 436 70 191 96 334 106 568 7 169 -4
254 -51 403 -13 43 -24 89 -24 103 0 28 -126 277 -171 339 -64 87 -240 286
-349 394 -161 160 -316 275 -550 409 -142 82 -241 116 -400 137 -196 26 -208
25 -230 -3z m315 -69 c99 -19 187 -51 285 -105 78 -42 185 -112 208 -135 7 -7
16 -13 20 -13 4 0 22 -14 41 -30 18 -17 37 -30 42 -30 4 0 14 -6 21 -13 7 -7
42 -36 78 -66 86 -71 160 -140 160 -150 0 -4 14 -17 30 -30 17 -12 41 -38 54
-59 14 -20 56 -71 95 -112 39 -41 71 -81 71 -88 0 -7 16 -27 36 -44 19 -17 33
-37 30 -44 -3 -7 1 -14 7 -17 18 -7 127 -210 127 -237 0 -12 16 -66 35 -120
49 -138 80 -310 55 -310 -5 0 -10 -14 -10 -31 0 -18 4 -28 10 -24 28 17 -20
-464 -48 -485 -4 -3 -15 -32 -26 -65 -10 -33 -24 -72 -32 -87 -8 -14 -14 -35
-14 -47 0 -26 -17 -66 -52 -118 -15 -23 -28 -46 -28 -51 0 -6 -7 -12 -15 -16
-8 -3 -15 -12 -15 -21 0 -9 -6 -15 -13 -13 -7 2 -41 -25 -75 -59 -35 -35 -67
-63 -71 -63 -5 0 -28 -16 -52 -35 -24 -19 -72 -44 -106 -55 -34 -12 -67 -28
-73 -36 -7 -8 -22 -14 -35 -14 -12 0 -25 -3 -28 -7 -12 -11 -108 -42 -197 -64
-56 -14 -115 -20 -174 -20 -88 1 -111 5 -101 20 5 9 -63 18 -222 27 -57 4
-100 11 -97 15 3 5 -5 10 -18 10 -13 1 -27 2 -33 4 -5 1 -20 3 -33 3 -13 1
-20 7 -17 12 7 11 -5 17 -47 24 -14 2 -38 12 -52 21 -14 10 -26 14 -26 11 0
-4 -15 4 -33 18 -19 15 -37 26 -42 26 -13 0 -89 64 -175 148 -46 45 -94 85
-105 88 -20 5 -72 79 -67 95 1 5 -3 8 -8 7 -10 -3 -28 24 -48 72 -21 51 -25
65 -23 79 1 8 -2 10 -9 6 -9 -5 -10 -1 -5 14 4 14 2 21 -5 19 -15 -4 -73 170
-65 199 3 13 1 23 -4 23 -14 0 -21 41 -11 61 7 11 6 19 -1 21 -16 5 -26 238
-9 238 7 0 10 7 6 16 -3 9 -3 21 1 27 5 7 8 21 9 32 2 61 5 75 20 90 12 11 16
33 16 71 0 34 5 59 14 68 8 8 14 19 14 25 0 6 4 11 8 11 8 0 36 60 33 73 -1 4
6 10 14 13 8 4 15 13 15 21 0 8 4 11 10 8 6 -3 10 4 10 16 0 20 73 126 105
154 6 6 29 33 49 60 45 59 150 177 258 290 43 44 78 85 78 91 0 6 9 19 20 29
11 10 20 24 20 32 0 7 4 13 9 13 5 0 15 15 22 33 7 17 19 38 26 45 8 8 10 24
7 39 -5 17 -3 24 3 20 6 -4 13 4 17 16 9 36 -21 239 -44 297 -16 40 -18 56 -9
72 12 22 30 22 184 -9z"/>
<path d="M1595 2820 c3 -5 12 -7 20 -4 8 3 28 -4 45 -16 19 -14 28 -16 24 -7
-6 17 -47 37 -75 37 -11 0 -18 -4 -14 -10z"/>
<path d="M1730 2735 c0 -8 4 -15 10 -15 5 0 7 7 4 15 -4 8 -8 15 -10 15 -2 0
-4 -7 -4 -15z"/>
<path d="M1760 2706 c0 -2 8 -10 18 -17 15 -13 16 -12 3 4 -13 16 -21 21 -21
13z"/>
<path d="M2010 2426 c0 -9 5 -16 10 -16 6 0 10 4 10 9 0 6 -4 13 -10 16 -5 3
-10 -1 -10 -9z"/>
<path d="M2016 2151 c-10 -16 20 -38 78 -55 46 -14 60 -15 66 -5 12 18 3 33
-29 52 -30 18 -106 23 -115 8z"/>
<path d="M937 2130 c-46 -8 -118 -73 -101 -90 7 -7 25 -3 58 15 26 14 56 25
66 25 11 0 24 9 29 19 15 27 -6 39 -52 31z"/>
<path d="M568 1913 c7 -3 16 -2 19 1 4 3 -2 6 -13 5 -11 0 -14 -3 -6 -6z"/>
<path d="M627 1904 c6 -15 23 -19 23 -5 0 5 -7 11 -14 14 -10 4 -13 1 -9 -9z"/>
<path d="M510 1683 c-14 -7 -18 -13 -10 -13 17 0 47 17 40 23 -3 2 -16 -2 -30
-10z"/>
<path d="M1935 1603 c-63 -16 -107 -93 -107 -187 0 -62 20 -98 67 -120 22 -11
48 -23 58 -28 12 -6 41 -2 85 11 37 11 85 23 107 28 31 6 41 13 43 31 2 15 -2
22 -12 22 -13 0 -16 12 -16 54 0 146 -91 222 -225 189z m110 -63 c26 -29 7
-70 -32 -70 -55 0 -73 10 -73 41 0 48 70 68 105 29z m-91 -136 c11 -4 16 -19
16 -46 0 -36 -2 -39 -22 -32 -27 8 -38 22 -32 41 15 49 13 47 38 37z"/>
<path d="M447 1593 c-3 -4 -9 -25 -15 -45 -13 -48 3 -50 25 -3 32 66 63 51 73
-35 l6 -45 8 37 c12 55 -9 92 -56 96 -20 2 -38 -1 -41 -5z"/>
<path d="M967 1519 c-21 -11 -46 -33 -56 -50 -26 -43 -34 -139 -15 -184 16
-38 12 -55 -12 -55 -17 0 -18 -21 -1 -42 10 -14 20 -15 57 -8 28 5 72 4 116
-2 l71 -11 36 35 c51 52 70 94 75 173 4 65 2 73 -22 102 -14 17 -41 38 -60 47
-48 23 -141 20 -189 -5z m138 -50 c4 -5 4 -21 1 -35 -5 -20 -12 -24 -44 -24
-39 0 -62 14 -62 37 0 26 91 45 105 22z m5 -174 c0 -31 -26 -43 -47 -22 -21
21 -9 47 22 47 20 0 25 -5 25 -25z"/>
<path d="M552 1460 c0 -14 2 -19 5 -12 2 6 2 18 0 25 -3 6 -5 1 -5 -13z"/>
<path d="M410 1304 c0 -8 5 -12 10 -9 6 4 8 11 5 16 -9 14 -15 11 -15 -7z"/>
<path d="M525 1080 c-3 -5 -1 -10 4 -10 6 0 11 5 11 10 0 6 -2 10 -4 10 -3 0
-8 -4 -11 -10z"/>
<path d="M341 1054 c0 -11 3 -14 6 -6 3 7 2 16 -1 19 -3 4 -6 -2 -5 -13z"/>
<path d="M982 1004 c-34 -36 -62 -69 -62 -74 0 -12 29 -20 35 -10 13 21 40 8
100 -49 113 -105 230 -145 425 -145 140 1 216 13 284 45 56 26 157 122 175
167 11 26 16 30 32 22 18 -10 59 5 59 21 0 4 -21 20 -47 35 -27 15 -54 34 -61
41 -30 30 -56 -5 -27 -37 24 -26 14 -54 -36 -113 -26 -31 -67 -61 -113 -85
l-71 -36 -170 -1 c-183 0 -229 9 -325 62 -54 31 -151 123 -143 136 11 18 21
77 14 82 -4 2 -35 -25 -69 -61z"/>
<path d="M530 1025 c0 -25 4 -34 12 -29 7 4 8 3 4 -5 -9 -14 11 -82 28 -96 7
-5 15 -19 19 -29 4 -10 9 -17 12 -15 4 4 -26 96 -37 114 -3 6 -9 27 -13 48
-10 50 -25 57 -25 12z"/>
<path d="M460 1021 c0 -5 5 -13 10 -16 6 -3 10 -18 10 -33 1 -30 26 -70 37
-58 4 4 3 10 -3 14 -5 4 -16 26 -22 49 -12 39 -32 67 -32 44z"/>
<path d="M2402 924 c-12 -8 -21 -23 -20 -32 2 -9 -3 -16 -9 -14 -8 1 -13 -8
-13 -20 l1 -23 19 24 c11 13 20 32 20 42 0 13 7 19 24 19 34 0 48 -22 42 -67
l-6 -38 15 30 c20 42 18 61 -7 79 -28 20 -38 20 -66 0z"/>
<path d="M2336 815 c-9 -26 -7 -32 5 -12 6 10 9 21 6 23 -2 3 -7 -2 -11 -11z"/>
<path d="M624 783 c2 -17 9 -39 15 -50 9 -15 10 -13 5 12 -4 17 -11 39 -15 50
-7 15 -8 12 -5 -12z"/>
<path d="M2425 779 c-4 -6 -5 -12 -2 -15 2 -3 7 2 10 11 7 17 1 20 -8 4z"/>
<path d="M2292 711 c-20 -35 -20 -39 -6 -45 22 -8 25 -4 26 33 1 17 5 28 10
25 4 -3 8 -1 8 5 0 25 -19 17 -38 -18z"/>
<path d="M2215 617 c-24 -21 -34 -36 -28 -40 6 -4 18 0 26 8 9 8 18 15 22 15
3 0 18 11 33 25 25 23 25 25 6 25 -11 0 -38 -15 -59 -33z"/>
<path d="M1668 223 c6 -2 18 -2 25 0 6 3 1 5 -13 5 -14 0 -19 -2 -12 -5z"/>
</g>
</svg>
