<svg width="110" height="123" viewBox="0 0 110 123" fill="none" xmlns="http://www.w3.org/2000/svg">
<mask id="mask0_216_384" style="mask-type:luminance" maskUnits="userSpaceOnUse" x="0" y="0" width="110" height="123">
<path d="M0 0H109.302V123H0V0Z" fill="white"/>
</mask>
<g mask="url(#mask0_216_384)">
<path d="M107.911 92.2499C108.768 90.7643 109.301 89.0905 109.301 87.5874V35.412C109.301 33.9093 108.769 32.2358 107.911 30.7502L54.6504 61.5001L107.911 92.2499Z" fill="white"/>
<path d="M59.3837 121.872L104.569 95.785C105.87 95.0334 107.053 93.7357 107.911 92.2498L54.6509 61.5L1.39062 92.2502C2.24789 93.7358 3.43164 95.0338 4.7329 95.785L49.918 121.872C52.5209 123.375 56.7808 123.375 59.3837 121.872Z" fill="white"/>
<path d="M107.911 30.7498C107.053 29.2639 105.87 27.9662 104.569 27.2147L59.3836 1.12731C56.7807 -0.375769 52.5208 -0.375769 49.918 1.12731L4.73283 27.2147C2.12959 28.7174 0 32.4065 0 35.4123V87.5874C0 89.0904 0.532577 90.7643 1.39056 92.2498L54.6508 61.5L107.911 30.7498Z" fill="white"/>
<path d="M54.6507 97.9339C34.561 97.9339 18.2168 81.5897 18.2168 61.5C18.2168 41.4103 34.561 25.0662 54.6507 25.0662C67.614 25.0662 79.7039 32.0422 86.202 43.2717L70.4344 52.3958C67.1821 46.775 61.1337 43.2831 54.6507 43.2831C44.6056 43.2831 36.4337 51.455 36.4337 61.5C36.4337 71.5447 44.6056 79.7169 54.6507 79.7169C61.1345 79.7169 67.1828 76.225 70.4355 70.6031L86.2031 79.727C79.705 90.9575 67.6147 97.9339 54.6507 97.9339Z" fill="#47795B"/>
</g>
</svg>
