<svg width="109" height="123" viewBox="0 0 109 123" fill="none" xmlns="http://www.w3.org/2000/svg">
<path d="M10.6886 110.103L0.857422 0.308594H109.001L99.1693 110.103L54.8091 122.515" fill="white"/>
<path d="M55.0488 112.968L90.7768 103.182L99.1693 9.14001H55.0488" fill="white"/>
<path d="M55.0485 49.9549H23.3969L24.5958 63.5599H55.0485V49.9549ZM55.0485 22.7449H20.999L22.1979 36.1112H55.0485V22.7449ZM55.0485 85.0415L25.3152 77.1649L26.9937 91.486L55.0485 99.1239V85.0415Z" fill="#47795B"/>
<path d="M55.0488 63.5599H71.594L69.9155 80.9839L55.0488 85.0415V99.1239L82.6241 91.486L88.8585 22.7449H55.0488V36.1112H74.2316L72.7929 49.9549H55.0488V63.5599Z" fill="#47795B"/>
</svg>
