<svg width="254" height="55" viewBox="0 0 254 55" fill="none" xmlns="http://www.w3.org/2000/svg"><path d="M124.964 16.423h-3.78q-1.876.001-3.781.048l.109 10.92a72 72 0 0 0 1.63-.11q1.038-.046 2.017-.096.979-.06 2.066-.06l-.061 5.218q-.919 0-1.848.06l-1.787.097q-1.087.061-1.957.169l.157 16.354-5.218.109-.374-37.818h2.935a397 397 0 0 1 9.941-.109zm23.2 14.011a11.2 11.2 0 0 1-.108 3.756 10.7 10.7 0 0 1-1.365 3.37 9.3 9.3 0 0 1-2.549 2.767 8.5 8.5 0 0 1-3.539 1.582 8 8 0 0 1-1.932.193 14 14 0 0 1-1.873-.193 9 9 0 0 1-1.787-.52 9.4 9.4 0 0 1-1.691-.893 9.1 9.1 0 0 1-2.718-2.887q-.978-1.63-1.196-3.636a8.6 8.6 0 0 1-.024-1.824q.082-.893.242-1.763.167-.82.459-1.691c.199-.58.447-1.123.736-1.63q.978-1.74 2.452-2.876.543-.433 1.027-.676.493-.254.979-.41a13 13 0 0 1 1.848-.436 14 14 0 0 1 3.478 0q.494.05.93.158.544.11.979.277.978.376 1.787.979a8.3 8.3 0 0 1 1.522 1.304q.325.375.604.81.156.217.266.386l.217.435a10.1 10.1 0 0 1 1.256 3.418m-5.218 2.67q.216-.93.049-1.8a5.1 5.1 0 0 0-.592-1.74q-.328-.481-.495-.7a3.6 3.6 0 0 0-.544-.544q-.326-.167-.652-.326a3 3 0 0 0-.375-.108h-.169q-.05-.06-.217-.06a10.3 10.3 0 0 0-2.114 0q-.498.108-.869.216a2 2 0 0 0-.435.218q-1.367 1.088-1.8 3.213-.217 1.027-.109 1.896.108.933.495 1.63.87 1.415 2.718 1.8 1.786.377 3.201-.652a5 5 0 0 0 1.196-1.304q.542-.87.712-1.74m26.355-2.886q.046 1.197-.036 2.476-.073 1.282-.241 2.524-.11.653-.242 1.305-.135.652-.35 1.365a10 10 0 0 1-.544 1.461q-.17.327-.386.713-.219.375-.484.7a7.2 7.2 0 0 1-1.256 1.28q-.702.57-1.413.955a8 8 0 0 1-.411.193 8 8 0 0 1-.35.133l-.435.157a.6.6 0 0 0-.157.036 1.5 1.5 0 0 0-.217.073 8 8 0 0 1-1.739.277 7.6 7.6 0 0 1-3.539-.76 8.4 8.4 0 0 1-2.609-2.175 8.1 8.1 0 0 1-1.522-2.995l-.109-.435-.048-.217a.35.35 0 0 1-.061-.157l-.108-.653q-.001-.325-.061-.628a24 24 0 0 1-.096-.628 37 37 0 0 1-.23-4.916q.06-2.414.169-4.759l5.218.278a122 122 0 0 0-.133 4.517 38 38 0 0 0 .193 4.337q0 .28.049.52.06.243.06.518l.109.484v.108l.048.06v.158q.168.605.604 1.147.374.485.918.761.435.218.978.218.108.001.242-.025.144-.035.302-.084h.048q.06.001.061-.06l.169-.049a.35.35 0 0 0 .157-.024 2 2 0 0 1 .169-.085q.543-.276.87-.712.108-.11.326-.544.108-.325.217-.7.155-.385.242-.87.082-.495.193-1.039c.175-1.334.245-2.73.205-4.179a105 105 0 0 0-.205-4.517l5.218-.327q.108 1.15.157 2.344.06 1.197.06 2.44m17.16-7.175.278 5.218a10.7 10.7 0 0 0-2.887.604 7.4 7.4 0 0 0-1.244.652q-.279.158-.604.375l-.217.217-.266.218q-1.086.978-1.63 2.174a6.1 6.1 0 0 0-.544 2.56h-.06q.059 2.115.169 4.216l.217 4.203-5.218.278a636 636 0 0 1-.761-20.389l5.218-.108q-.002.606.024 1.207.024.595.025 1.184.494-.372.869-.592a16 16 0 0 1 2.126-1.039 15.7 15.7 0 0 1 4.505-.978m24.945 2.718q.108.497.133.99.023.484.024 1.027 0 .436-.024.894-.026.461-.084.954a23.6 23.6 0 0 1-.52 3.696 23 23 0 0 1-1.111 3.636 25.5 25.5 0 0 1-1.763 3.43 18 18 0 0 1-2.368 3.044q-2.718 2.937-6.305 4.505-1.089.497-2.331.821v.11h-.278q-2.5.641-5 .64v-3.419l-.701-34.074h.157l-.048-.217a22 22 0 0 1 3.829-.544 15 15 0 0 1 3.998.326q2.002.436 3.805 1.365a13.2 13.2 0 0 1 3.309 2.331 16.2 16.2 0 0 1 2.609 3.105 16.7 16.7 0 0 1 1.739 3.527q.712 1.85.93 3.853m-5.109 3.478q-.002-.372.024-.748.023-.385.024-.773 0-.326-.024-.653a7 7 0 0 0-.084-.652 11.2 11.2 0 0 0-.652-2.718q-1.028-2.763-2.984-4.553-2.02-1.908-4.674-2.452a7.2 7.2 0 0 0-1.522-.157l.543 26.73a.5.5 0 0 0 .182-.025.3.3 0 0 0 .144-.084q2.61-1.134 4.614-3.31 1.956-2.064 3.105-4.843a19.1 19.1 0 0 0 1.304-5.762m21.138 8.214q.11-.327.109-.544l5.218.266c-.042.362-.097.719-.169 1.063a7 7 0 0 1-.266.954 9.5 9.5 0 0 1-.821 1.74 8.8 8.8 0 0 1-1.305 1.521q-.87.811-1.848 1.196-.11.05-.266.109l-.217.048-.387.17q-.108.049-.217.084a7 7 0 0 0-.266.072l-.435.06q-.434.11-.93.17a10 10 0 0 1-.978.048q-1.898-.06-3.696-.978a9.7 9.7 0 0 1-2.875-2.343 9.5 9.5 0 0 1-1.739-3.201 2 2 0 0 1-.169-.46 2.7 2.7 0 0 1-.048-.519l-.061-.217a.3.3 0 0 0-.024-.109.3.3 0 0 1-.024-.108v-.218a.23.23 0 0 0-.061-.169 25 25 0 0 1-.048-1.63q0-1.631.375-3.201a16.5 16.5 0 0 1 .978-3.044q.325-.71.809-1.498a8.6 8.6 0 0 1 1.208-1.498q.699-.697 1.57-1.196a7.8 7.8 0 0 1 1.8-.76 8.5 8.5 0 0 1 1.945-.315q1.038-.058 2.125.206a6.1 6.1 0 0 1 1.957.93 8.3 8.3 0 0 1 1.522 1.304q.276.328.544.7l.06.11.109.108.108.218q.108.17.266.495.217.437.375.846.166.398.338.785.218.762.398 1.497.192.727.302 1.438.06.375.109.736.059.354.109.725a10 10 0 0 1 .109 1.522l-5.218.218q-1.632.061-3.322.169l-3.358.217q.047.266.048.375v.144q-.001.074.061.133v.218q.046.05.048.133-.002.084.06.193.218.76.761 1.413.543.655 1.245 1.027.76.388 1.413.386.168-.06.35-.06.192 0 .411-.048l.217-.06h.048q.059 0 .121-.05l.218-.06.108-.048h.049c.145-.072.271-.163.386-.278q.218-.217.435-.483.154-.326.326-.652m-4.457-8.54q-.544.545-.93 1.474-.05.048-.109.266a87 87 0 0 1 2.525-.182q1.278-.081 2.585-.144-.05-.047-.049-.049a8 8 0 0 0-.326-.821 3 3 0 0 1-.06-.157q-.001.002-.049-.06l-.06-.049a.86.86 0 0 0-.266-.326q-.436-.544-.93-.652-.484-.169-1.196.048a2.7 2.7 0 0 0-.591.278q-.282.159-.544.374m25.538-5.109 5 1.473a188 188 0 0 0-1.039 3.672 155 155 0 0 1-1.026 3.66l-.496 1.848-.265.979-.435 1.413q-.327.87-.604 1.8a24 24 0 0 1-.592 1.787l-.652 1.74-.604 1.69-4.94-.169-.58-1.787q-.29-.93-.568-1.848l-.543-1.848-.483-1.848-.653-2.175-.495-1.908a215 215 0 0 1-2.005-7.61l5.049-1.304.978 3.78q.495 1.875.979 3.781l.978 3.479.109-.435.278-.93.543-1.848q.48-1.785 1.003-3.66.517-1.884 1.063-3.732M53.895 55l-4.204-8.407 4.204-4.203 4.203 4.203zm15.742-27.95v-4.02a5.716 5.716 0 1 0 4.02 4.02zm-31.947 0v-4.02a5.714 5.714 0 0 1 7.214 5.517 5.714 5.714 0 0 1-5.717 5.717 5.714 5.714 0 0 1-5.517-7.214z" fill="#47795B"/><mask id="a" style="mask-type:luminance" maskUnits="userSpaceOnUse" x="53" y="4" width="50" height="45"><path d="M53.759 4.043h48.281v44.063H53.759z" fill="#fff"/></mask><g mask="url(#a)"><path d="M71.535 43.115c-7.328 0-13.29-5.961-13.29-13.29s5.962-13.29 13.29-13.29c7.329 0 13.29 5.962 13.29 13.29 0 7.329-5.961 13.29-13.29 13.29M102.17 4.717c-10.213 6.73-30.635 7.41-30.635 7.41-9.76 0-17.701 7.939-17.701 17.698s7.942 17.701 17.701 17.701 17.698-7.941 17.698-17.7c0-4.687-1.833-8.951-4.816-12.119 11.227-3.632 17.753-12.99 17.753-12.99" fill="#47795B"/></g><mask id="b" style="mask-type:luminance" maskUnits="userSpaceOnUse" x="0" y="0" width="54" height="53"><path d="M0 0h53.759v52.744H0z" fill="#fff"/></mask><g mask="url(#b)"><path d="M30.634 47.813c-9.916 0-17.985-8.068-17.985-17.988 0-9.916 8.069-17.985 17.985-17.985 9.917 0 17.985 8.069 17.985 17.985 0 9.92-8.068 17.988-17.985 17.988m0-40.385S10.213 6.748 0 .018c0 0 6.006 8.615 16.409 12.523-4.986 4.11-8.171 10.333-8.171 17.284 0 12.35 10.046 22.397 22.396 22.397s22.397-10.047 22.397-22.397c0-12.347-10.046-22.397-22.397-22.397" fill="#47795B"/></g></svg>