<?xml version="1.0" standalone="no"?>
<!DOCTYPE svg PUBLIC "-//W3C//DTD SVG 20010904//EN"
 "http://www.w3.org/TR/2001/REC-SVG-20010904/DTD/svg10.dtd">
<svg version="1.0" xmlns="http://www.w3.org/2000/svg"
 width="386.000000pt" height="363.000000pt" viewBox="0 0 386.000000 363.000000"
 preserveAspectRatio="xMidYMid meet">

<g transform="translate(0.000000,363.000000) scale(0.100000,-0.100000)"
stroke="none">
  <path d="M1244 3546 c-3 -8 2 -72 10 -143 57 -466 31 -839 -74 -1071 -16 -34
  -39 -76 -51 -93 l-22 -31 -28 60 c-55 113 -157 204 -268 236 -78 23 -197 21
  -237 -3 l-32 -19 14 -53 c27 -104 16 -200 -47 -399 -65 -207 -90 -343 -96
  -530 -8 -246 21 -421 103 -612 155 -362 487 -667 866 -792 157 -52 291 -70
  483 -63 182 7 303 29 451 82 132 48 212 92 336 185 371 279 543 584 580 1028
  13 158 0 403 -28 542 -47 233 -222 645 -362 854 -91 135 -207 271 -307 358
  -72 63 -95 78 -122 78 l-33 0 0 -117 c0 -144 -13 -231 -46 -302 -13 -30 -26
  -52 -28 -50 -2 2 -20 45 -41 94 -155 379 -469 654 -863 755 -95 24 -150 26
  -158 6z m256 -101 c354 -127 625 -409 741 -772 13 -40 29 -73 35 -73 33 0 65
  23 89 65 46 78 66 160 73 294 l7 124 83 -78 c236 -222 430 -551 562 -953 49
  -149 66 -243 80 -445 35 -480 -97 -852 -402 -1130 -290 -265 -540 -372 -901
  -384 -393 -14 -698 105 -991 387 -161 155 -273 329 -341 532 -51 155 -68 279
  -62 473 6 188 27 308 92 513 58 183 69 253 62 370 l-7 95 83 -5 c168 -11 272
  -92 343 -268 14 -36 27 -66 28 -68 2 -1 16 3 32 8 33 12 100 104 134 185 36
  85 68 209 86 332 23 154 23 483 0 683 -9 80 -16 150 -16 157 0 14 83 -4 190
  -42z" fill="#F71217" />
  <path d="M1885 2511 c-295 -83 -500 -332 -539 -653 -4 -32 -9 -58 -12 -58 -2
  0 -23 12 -46 26 -84 53 -212 82 -305 69 l-48 -6 -1 -122 c0 -118 -1 -126 -46
  -257 -101 -295 -91 -472 45 -749 141 -288 412 -492 729 -547 139 -24 326 -15
  433 20 174 59 367 177 470 287 90 98 195 297 237 450 20 74 23 106 22 269 0
  152 -4 204 -23 290 -42 200 -112 379 -198 514 -74 115 -103 146 -140 146 -29
  0 -33 -3 -38 -37 -16 -95 -37 -148 -75 -185 -21 -21 -42 -38 -48 -38 -23 0
  -117 89 -162 153 -63 89 -106 201 -127 330 -10 56 -17 102 -18 103 -4 11 -64
  8 -110 -5z m-541 -1441 c113 -99 34 -292 -109 -266 -96 18 -145 135 -94 225
  27 49 64 70 121 71 39 0 54 -6 82 -30z m983 10 c41 -24 65 -71 65 -124 0 -54
  -13 -85 -52 -121 -27 -26 -39 -30 -85 -30 -48 0 -58 4 -90 35 -98 95 -42 260
  90 260 22 0 54 -9 72 -20z m-839 -191 c4 -43 -20 -69 -46 -52 -24 14 -26 40
  -7 69 23 36 49 28 53 -17z m996 18 c15 -23 -12 -72 -39 -72 -27 0 -33 56 -9
  79 19 19 33 17 48 -7z" fill="#FDC334" />
</g>
</svg>

