<svg width="83" height="45" viewBox="0 0 83 45" fill="none" xmlns="http://www.w3.org/2000/svg">
<mask id="mask0_1063_4234" style="mask-type:luminance" maskUnits="userSpaceOnUse" x="39" y="33" width="9" height="12">
<path d="M39.3882 33.4424H47.4205V44.3613H39.3882V33.4424Z" fill="white"/>
</mask>
<g mask="url(#mask0_1063_4234)">
<path d="M43.3191 44.2106L39.9419 37.4533L43.3191 34.0732L46.6992 37.4533L43.3191 44.2106Z" fill="#6188B3"/>
</g>
<path d="M55.9722 21.7421V18.5132C55.59 18.4076 55.1878 18.3506 54.7685 18.3506C52.2328 18.3506 50.1733 20.41 50.1733 22.9458C50.1733 25.4844 52.2328 27.5438 54.7685 27.5438C57.3071 27.5438 59.3665 25.4844 59.3665 22.9458C59.3665 22.5293 59.3095 22.1271 59.204 21.7421H55.9722Z" fill="#6188B3"/>
<path d="M30.2924 21.7421V18.5132C30.6774 18.4076 31.0796 18.3506 31.4961 18.3506C34.0347 18.3506 36.0941 20.41 36.0941 22.9458C36.0941 25.4844 34.0347 27.5438 31.4961 27.5438C28.9603 27.5438 26.9009 25.4844 26.9009 22.9458C26.9009 22.5293 26.9579 22.1271 27.0635 21.7421H30.2924Z" fill="#6188B3"/>
<mask id="mask1_1063_4234" style="mask-type:luminance" maskUnits="userSpaceOnUse" x="43" y="3" width="40" height="36">
<path d="M43.0396 3.50391H82.1485V38.5539H43.0396V3.50391Z" fill="white"/>
</mask>
<g mask="url(#mask1_1063_4234)">
<path d="M57.4982 34.6575C51.6081 34.6575 46.8161 29.8655 46.8161 23.9725C46.8161 18.0823 51.6081 13.2903 57.4982 13.2903C63.3912 13.2903 68.1832 18.0823 68.1832 23.9725C68.1832 29.8655 63.3912 34.6575 57.4982 34.6575ZM82.1256 3.78906C73.9165 9.20002 57.4982 9.74768 57.4982 9.74768C49.6542 9.74768 43.2734 16.1284 43.2734 23.9725C43.2734 31.8194 49.6542 38.2001 57.4982 38.2001C65.3451 38.2001 71.7259 31.8194 71.7259 23.9725C71.7259 20.2073 70.2512 16.7788 67.8524 14.2316C76.8773 11.3136 82.1256 3.78906 82.1256 3.78906Z" fill="#6188B3"/>
</g>
<mask id="mask2_1063_4234" style="mask-type:luminance" maskUnits="userSpaceOnUse" x="0" y="0" width="44" height="43">
<path d="M0 0H43.0395V42.2037H0V0Z" fill="white"/>
</mask>
<g mask="url(#mask2_1063_4234)">
<path d="M24.6226 38.4304C16.6531 38.4304 10.1668 31.9441 10.1668 23.9718C10.1668 16.0022 16.6531 9.51591 24.6226 9.51591C32.595 9.51591 39.0813 16.0022 39.0813 23.9718C39.0813 31.9441 32.595 38.4304 24.6226 38.4304ZM24.6226 5.97041C24.6226 5.97041 8.20718 5.42561 -0.00195312 0.0146484C-0.00195312 0.0146484 4.82712 6.94022 13.1903 10.0778C9.1827 13.3837 6.62126 18.3839 6.62126 23.9718C6.62126 33.898 14.6992 41.9759 24.6226 41.9759C34.5489 41.9759 42.6268 33.898 42.6268 23.9718C42.6268 14.0455 34.5489 5.97041 24.6226 5.97041Z" fill="#6188B3"/>
</g>
</svg>
