<svg width="200" height="200" viewBox="0 0 242 54" fill="none" xmlns="http://www.w3.org/2000/svg">
<g filter="url(#filter0_d_1743_372)">
<rect x="4" width="5000" height="5000" rx="23" fill="#E8EDEB"/>
<rect x="5.25" y="1.25" width="231.5" height="43.5" rx="21.75" stroke="#FFA3A1" stroke-width="2.5"/>
</g>
<path d="M62.7283 20.592V27.152C62.0776 27.5147 61.3789 27.792 60.6323 27.984C59.8963 28.176 59.2029 28.272 58.5523 28.272C57.2189 28.272 56.0883 28.0107 55.1603 27.488C54.2429 26.9547 53.5496 26.2133 53.0803 25.264C52.6216 24.3147 52.3923 23.2107 52.3923 21.952C52.3923 20.7573 52.6109 19.6853 53.0483 18.736C53.4963 17.7867 54.1789 17.0347 55.0963 16.48C56.0243 15.9253 57.1763 15.648 58.5523 15.648C59.2563 15.648 59.8483 15.7173 60.3283 15.856C60.8189 15.984 61.3683 16.1813 61.9763 16.448V18.464C61.4323 18.1653 60.8936 17.9413 60.3603 17.792C59.8376 17.632 59.2349 17.552 58.5523 17.552C57.7416 17.552 57.0376 17.7387 56.4403 18.112C55.8536 18.4853 55.4056 19.0027 55.0963 19.664C54.7869 20.3147 54.6323 21.0613 54.6323 21.904C54.6323 23.2587 54.9736 24.3413 55.6562 25.152C56.3496 25.9627 57.3149 26.368 58.5523 26.368C59.2136 26.368 59.8803 26.2347 60.5523 25.968V22.528H56.7763V20.592H62.7283ZM73.2194 19.056V28H71.0754V27.168C70.2647 27.8507 69.3954 28.192 68.4674 28.192C67.3154 28.192 66.4567 27.8987 65.8914 27.312C65.3367 26.7147 65.0594 25.7547 65.0594 24.432V19.056H67.2034V24.432C67.2034 25.072 67.326 25.536 67.5714 25.824C67.8274 26.112 68.2647 26.256 68.8834 26.256C69.6087 26.256 70.3394 25.9467 71.0754 25.328V19.056H73.2194ZM78.9 19.056C79.956 19.056 80.756 19.216 81.3 19.536C81.8547 19.8453 82.2227 20.2667 82.404 20.8C82.5853 21.3227 82.676 21.984 82.676 22.784V28H80.532V27.184C80.1373 27.5467 79.748 27.808 79.364 27.968C78.9907 28.128 78.58 28.208 78.132 28.208C77.1933 28.208 76.436 27.9413 75.86 27.408C75.2947 26.864 75.012 26.1227 75.012 25.184C75.012 24.224 75.3053 23.4827 75.892 22.96C76.4893 22.4267 77.3053 22.16 78.34 22.16C79.1827 22.16 79.9133 22.3253 80.532 22.656C80.5213 22.2507 80.468 21.9253 80.372 21.68C80.2867 21.4347 80.1107 21.248 79.844 21.12C79.5773 20.9813 79.1827 20.912 78.66 20.912H77.156V19.056H78.9ZM78.516 26.496C79.1667 26.496 79.8387 26.1973 80.532 25.6V24.192C79.9667 23.904 79.3853 23.76 78.788 23.76C78.3187 23.76 77.9347 23.872 77.636 24.096C77.3373 24.3093 77.188 24.6613 77.188 25.152C77.188 25.632 77.3107 25.9787 77.556 26.192C77.812 26.3947 78.132 26.496 78.516 26.496ZM90.0868 18.864V20.784H89.7188C88.8441 20.784 87.9854 21.1147 87.1428 21.776V28H84.9988V19.056H87.1428V19.952C87.9641 19.2267 88.8228 18.864 89.7188 18.864H90.0868ZM99.9705 14.464V28H97.8265V27.296C97.0158 27.9467 96.1838 28.272 95.3305 28.272C94.1145 28.272 93.1385 27.8667 92.4025 27.056C91.6665 26.2453 91.2985 25.0667 91.2985 23.52C91.2985 22.496 91.4692 21.632 91.8105 20.928C92.1518 20.2133 92.6265 19.68 93.2345 19.328C93.8425 18.976 94.5412 18.8 95.3305 18.8C96.1945 18.8 97.0265 19.12 97.8265 19.76V14.464H99.9705ZM95.7465 26.336C96.4505 26.336 97.1438 26.064 97.8265 25.52V21.536C97.1225 20.992 96.4292 20.72 95.7465 20.72C95.0105 20.72 94.4558 20.96 94.0825 21.44C93.7092 21.92 93.5225 22.6133 93.5225 23.52C93.5225 24.448 93.7092 25.152 94.0825 25.632C94.4558 26.1013 95.0105 26.336 95.7465 26.336ZM105.65 19.056C106.706 19.056 107.506 19.216 108.05 19.536C108.605 19.8453 108.973 20.2667 109.154 20.8C109.335 21.3227 109.426 21.984 109.426 22.784V28H107.282V27.184C106.887 27.5467 106.498 27.808 106.114 27.968C105.741 28.128 105.33 28.208 104.882 28.208C103.943 28.208 103.186 27.9413 102.61 27.408C102.045 26.864 101.762 26.1227 101.762 25.184C101.762 24.224 102.055 23.4827 102.642 22.96C103.239 22.4267 104.055 22.16 105.09 22.16C105.933 22.16 106.663 22.3253 107.282 22.656C107.271 22.2507 107.218 21.9253 107.122 21.68C107.037 21.4347 106.861 21.248 106.594 21.12C106.327 20.9813 105.933 20.912 105.41 20.912H103.906V19.056H105.65ZM105.266 26.496C105.917 26.496 106.589 26.1973 107.282 25.6V24.192C106.717 23.904 106.135 23.76 105.538 23.76C105.069 23.76 104.685 23.872 104.386 24.096C104.087 24.3093 103.938 24.6613 103.938 25.152C103.938 25.632 104.061 25.9787 104.306 26.192C104.562 26.3947 104.882 26.496 105.266 26.496ZM114.805 28.272C114.111 28.272 113.493 28.2133 112.949 28.096C112.405 27.9787 111.839 27.7813 111.253 27.504V25.536C111.818 25.856 112.389 26.0907 112.965 26.24C113.551 26.3787 114.165 26.448 114.805 26.448C115.711 26.448 116.165 26.1227 116.165 25.472C116.165 25.1947 116.085 24.992 115.925 24.864C115.775 24.7253 115.535 24.6133 115.205 24.528L113.893 24.24C113.071 24.0587 112.447 23.7653 112.021 23.36C111.605 22.944 111.397 22.352 111.397 21.584C111.397 19.728 112.554 18.8 114.869 18.8C115.882 18.8 116.901 18.992 117.925 19.376V21.264C117.53 21.072 117.077 20.9173 116.565 20.8C116.053 20.6827 115.519 20.624 114.965 20.624C114.037 20.624 113.573 20.9013 113.573 21.456C113.573 21.712 113.647 21.8987 113.797 22.016C113.957 22.1333 114.191 22.2293 114.501 22.304L115.797 22.592C116.661 22.7947 117.301 23.0987 117.717 23.504C118.133 23.9093 118.341 24.5333 118.341 25.376C118.341 26.3253 118.021 27.0453 117.381 27.536C116.741 28.0267 115.882 28.272 114.805 28.272ZM127.793 28.272C126.353 28.2613 125.249 27.84 124.481 27.008C123.724 26.1653 123.345 24.9973 123.345 23.504C123.345 22.032 123.724 20.8853 124.481 20.064C125.249 19.232 126.353 18.8107 127.793 18.8C128.305 18.8 128.743 18.832 129.105 18.896C129.479 18.96 129.863 19.072 130.257 19.232V21.232C129.863 21.04 129.489 20.9067 129.137 20.832C128.796 20.7573 128.417 20.72 128.001 20.72C126.38 20.7307 125.569 21.6533 125.569 23.488C125.569 25.3867 126.364 26.336 127.953 26.336C128.721 26.336 129.505 26.1067 130.305 25.648L130.929 27.44C129.969 27.9947 128.924 28.272 127.793 28.272ZM135.744 19.056C136.8 19.056 137.6 19.216 138.144 19.536C138.698 19.8453 139.066 20.2667 139.248 20.8C139.429 21.3227 139.52 21.984 139.52 22.784V28H137.376V27.184C136.981 27.5467 136.592 27.808 136.208 27.968C135.834 28.128 135.424 28.208 134.976 28.208C134.037 28.208 133.28 27.9413 132.704 27.408C132.138 26.864 131.856 26.1227 131.856 25.184C131.856 24.224 132.149 23.4827 132.736 22.96C133.333 22.4267 134.149 22.16 135.184 22.16C136.026 22.16 136.757 22.3253 137.376 22.656C137.365 22.2507 137.312 21.9253 137.216 21.68C137.13 21.4347 136.954 21.248 136.688 21.12C136.421 20.9813 136.026 20.912 135.504 20.912H134V19.056H135.744ZM135.36 26.496C136.01 26.496 136.682 26.1973 137.376 25.6V24.192C136.81 23.904 136.229 23.76 135.632 23.76C135.162 23.76 134.778 23.872 134.48 24.096C134.181 24.3093 134.032 24.6613 134.032 25.152C134.032 25.632 134.154 25.9787 134.4 26.192C134.656 26.3947 134.976 26.496 135.36 26.496ZM152.307 18.864C153.416 18.864 154.243 19.1627 154.787 19.76C155.331 20.3467 155.603 21.296 155.603 22.608V28H153.459V22.608C153.459 21.9787 153.341 21.52 153.107 21.232C152.872 20.9333 152.467 20.784 151.891 20.784C151.197 20.784 150.483 21.1147 149.747 21.776C149.779 22.032 149.795 22.3093 149.795 22.608V28H147.651V22.608C147.651 21.9787 147.533 21.52 147.299 21.232C147.064 20.9333 146.659 20.784 146.083 20.784C145.389 20.784 144.691 21.0933 143.987 21.712V28H141.843V19.056H143.987V19.872C144.787 19.2 145.624 18.864 146.499 18.864C147.203 18.864 147.789 18.9813 148.259 19.216C148.739 19.44 149.101 19.7973 149.347 20.288C149.827 19.808 150.301 19.4507 150.771 19.216C151.251 18.9813 151.763 18.864 152.307 18.864ZM162.592 18.8C163.381 18.8 164.08 18.976 164.688 19.328C165.307 19.68 165.787 20.2133 166.128 20.928C166.469 21.632 166.64 22.5013 166.64 23.536C166.64 24.5707 166.469 25.4453 166.128 26.16C165.787 26.864 165.307 27.392 164.688 27.744C164.08 28.096 163.381 28.272 162.592 28.272C161.739 28.272 160.907 27.9467 160.096 27.296V28H157.952V14.464H160.096V19.76C160.896 19.12 161.728 18.8 162.592 18.8ZM162.192 26.336C162.917 26.336 163.467 26.1013 163.84 25.632C164.213 25.152 164.4 24.4533 164.4 23.536C164.4 22.6187 164.213 21.92 163.84 21.44C163.467 20.96 162.917 20.72 162.192 20.72C161.499 20.72 160.8 20.992 160.096 21.536V25.52C160.779 26.064 161.477 26.336 162.192 26.336ZM168.639 15.088H170.783V17.504H168.639V15.088ZM168.639 19.056H170.783V28H168.639V19.056ZM177.407 28.272C176.415 28.272 175.572 28.064 174.879 27.648C174.185 27.232 173.663 26.6667 173.311 25.952C172.969 25.2267 172.799 24.416 172.799 23.52C172.799 22.6347 172.969 21.8347 173.311 21.12C173.663 20.4053 174.185 19.84 174.879 19.424C175.572 19.008 176.415 18.8 177.407 18.8C178.388 18.8 179.22 19.008 179.903 19.424C180.596 19.84 181.113 20.4053 181.455 21.12C181.807 21.8347 181.983 22.6347 181.983 23.52C181.983 24.416 181.807 25.2267 181.455 25.952C181.113 26.6667 180.596 27.232 179.903 27.648C179.22 28.064 178.388 28.272 177.407 28.272ZM177.407 26.4C178.164 26.4 178.745 26.144 179.151 25.632C179.556 25.1093 179.759 24.4053 179.759 23.52C179.759 22.6347 179.556 21.936 179.151 21.424C178.745 20.912 178.164 20.656 177.407 20.656C176.639 20.656 176.047 20.912 175.631 21.424C175.225 21.936 175.023 22.6347 175.023 23.52C175.023 24.4053 175.225 25.1093 175.631 25.632C176.047 26.144 176.639 26.4 177.407 26.4ZM187.055 28.272C186.361 28.272 185.743 28.2133 185.199 28.096C184.655 27.9787 184.089 27.7813 183.503 27.504V25.536C184.068 25.856 184.639 26.0907 185.215 26.24C185.801 26.3787 186.415 26.448 187.055 26.448C187.961 26.448 188.415 26.1227 188.415 25.472C188.415 25.1947 188.335 24.992 188.175 24.864C188.025 24.7253 187.785 24.6133 187.455 24.528L186.143 24.24C185.321 24.0587 184.697 23.7653 184.271 23.36C183.855 22.944 183.647 22.352 183.647 21.584C183.647 19.728 184.804 18.8 187.119 18.8C188.132 18.8 189.151 18.992 190.175 19.376V21.264C189.78 21.072 189.327 20.9173 188.815 20.8C188.303 20.6827 187.769 20.624 187.215 20.624C186.287 20.624 185.823 20.9013 185.823 21.456C185.823 21.712 185.897 21.8987 186.047 22.016C186.207 22.1333 186.441 22.2293 186.751 22.304L188.047 22.592C188.911 22.7947 189.551 23.0987 189.967 23.504C190.383 23.9093 190.591 24.5333 190.591 25.376C190.591 26.3253 190.271 27.0453 189.631 27.536C188.991 28.0267 188.132 28.272 187.055 28.272Z" fill="#FFA3A1"/>
<defs>
<filter id="filter0_d_1743_372" x="0" y="0" width="242" height="54" filterUnits="userSpaceOnUse" color-interpolation-filters="sRGB">
<feFlood flood-opacity="0" result="BackgroundImageFix"/>
<feColorMatrix in="SourceAlpha" type="matrix" values="0 0 0 0 0 0 0 0 0 0 0 0 0 0 0 0 0 0 127 0" result="hardAlpha"/>
<feOffset dy="4"/>
<feGaussianBlur stdDeviation="2"/>
<feComposite in2="hardAlpha" operator="out"/>
<feColorMatrix type="matrix" values="0 0 0 0 0 0 0 0 0 0 0 0 0 0 0 0 0 0 0.25 0"/>
<feBlend mode="normal" in2="BackgroundImageFix" result="effect1_dropShadow_1743_372"/>
<feBlend mode="normal" in="SourceGraphic" in2="effect1_dropShadow_1743_372" result="shape"/>
</filter>
</defs>
</svg>
