<svg width="109" height="123" viewBox="0 0 109 123" fill="none" xmlns="http://www.w3.org/2000/svg">
<path d="M9.84961 110.508L0 0H108.346L98.4961 110.508L54.0527 123" fill="white"/>
<path d="M54.293 113.391L90.0879 103.541L98.4961 8.88867H54.293" fill="white"/>
<path d="M54.293 49.9687H36.2754L35.0742 36.0352H54.293V22.582H20.1797L23.7832 63.6621H54.293V49.9687ZM54.293 85.2832L38.918 81.1992L37.957 70.3887H24.5039L26.1855 91.7695L54.293 99.457V85.2832Z" fill="#47795B"/>
<path d="M54.293 63.6621H70.8691L69.1875 81.1992L54.293 85.2832V99.457L81.9199 91.7695L85.7637 49.9687H54.293V63.6621ZM54.293 22.582V36.0352H86.9648L88.166 22.582H54.293Z" fill="#47795B"/>
</svg>
