<svg width="158" height="158" viewBox="0 0 158 158" fill="none" xmlns="http://www.w3.org/2000/svg">
<mask id="mask0_694_154" style="mask-type:luminance" maskUnits="userSpaceOnUse" x="77" y="94" width="11" height="15">
<path d="M77.1709 94.9413H87.1016V108.596H77.1709V94.9413Z" fill="white"/>
</mask>
<g mask="url(#mask0_694_154)">
<path d="M82.0442 108.765L77.4893 99.6576L82.0442 95.1026L86.5971 99.6576L82.0442 108.765Z" fill="#47795B"/>
</g>
<path d="M99.0963 78.4855V74.1306C98.5797 73.9918 98.0346 73.9163 97.4731 73.9163C94.0533 73.9163 91.2808 76.6888 91.2808 80.1086C91.2808 83.5284 94.0533 86.301 97.4731 86.301C100.895 86.301 103.668 83.5284 103.668 80.1086C103.668 79.5472 103.592 79.0041 103.451 78.4855H99.0963Z" fill="#47795B"/>
<path d="M64.4878 78.4855V74.1306C65.0043 73.9918 65.5474 73.9163 66.1089 73.9163C69.5307 73.9163 72.3033 76.6888 72.3033 80.1086C72.3033 83.5284 69.5307 86.301 66.1089 86.301C62.6891 86.301 59.9165 83.5284 59.9165 80.1086C59.9165 79.5472 59.992 79.0041 60.1329 78.4855H64.4878Z" fill="#47795B"/>
<mask id="mask1_694_154" style="mask-type:luminance" maskUnits="userSpaceOnUse" x="81" y="54" width="54" height="47">
<path d="M81.8745 54.1733H134.527V100.691H81.8745V54.1733Z" fill="white"/>
</mask>
<g mask="url(#mask1_694_154)">
<path d="M101.152 95.8887C93.2138 95.8887 86.756 89.4309 86.756 81.4929C86.756 73.5549 93.2138 67.095 101.152 67.095C109.092 67.095 115.55 73.5549 115.55 81.4929C115.55 89.4309 109.092 95.8887 101.152 95.8887ZM134.339 54.2897C123.277 61.5825 101.152 62.3175 101.152 62.3175C90.5801 62.3175 81.9785 70.9191 81.9785 81.4929C81.9785 92.0646 90.5801 100.666 101.152 100.666C111.726 100.666 120.327 92.0646 120.327 81.4929C120.327 76.4152 118.341 71.797 115.107 68.3629C127.269 64.4307 134.339 54.2897 134.339 54.2897Z" fill="#47795B"/>
</g>
<mask id="mask2_694_154" style="mask-type:luminance" maskUnits="userSpaceOnUse" x="23" y="49" width="59" height="57">
<path d="M23.6606 49.1855H81.352V105.917H23.6606V49.1855Z" fill="white"/>
</mask>
<g mask="url(#mask2_694_154)">
<path d="M56.846 100.977C46.1027 100.977 37.3603 92.2361 37.3603 81.4929C37.3603 70.7496 46.1027 62.0072 56.846 62.0072C67.5892 62.0072 76.3296 70.7496 76.3296 81.4929C76.3296 92.2361 67.5892 100.977 56.846 100.977ZM56.846 57.2318C56.846 57.2318 34.7204 56.4947 23.6587 49.2039C23.6587 49.2039 30.1675 58.5364 41.4355 62.7667C36.0332 67.2196 32.5828 73.9612 32.5828 81.4929C32.5828 94.8699 43.4669 105.754 56.846 105.754C70.223 105.754 81.1071 94.8699 81.1071 81.4929C81.1071 68.1159 70.223 57.2318 56.846 57.2318Z" fill="#47795B"/>
</g>
<path d="M78.9977 3.47876C37.2906 3.47876 3.47852 37.2908 3.47852 78.9979C3.47852 120.707 37.2906 154.519 78.9977 154.519C120.707 154.519 154.519 120.707 154.519 78.9979C154.519 37.2908 120.707 3.47876 78.9977 3.47876Z" stroke="#47795B" stroke-width="6"/>
</svg>
