<svg width="519" height="264" viewBox="0 0 519 264" fill="none" xmlns="http://www.w3.org/2000/svg">
<mask id="mask0_694_156" style="mask-type:luminance" maskUnits="userSpaceOnUse" x="96" y="113" width="11" height="15">
<path d="M96.1709 113.941H106.102V127.596H96.1709V113.941Z" fill="white"/>
</mask>
<g mask="url(#mask0_694_156)">
<path d="M101.044 127.765L96.4893 118.658L101.044 114.103L105.597 118.658L101.044 127.765Z" fill="#6188B3"/>
</g>
<path d="M118.096 97.4855V93.1306C117.58 92.9918 117.035 92.9163 116.473 92.9163C113.053 92.9163 110.281 95.6888 110.281 99.1086C110.281 102.528 113.053 105.301 116.473 105.301C119.895 105.301 122.668 102.528 122.668 99.1086C122.668 98.5472 122.592 98.0041 122.451 97.4855H118.096Z" fill="#6188B3"/>
<path d="M83.4878 97.4855V93.1306C84.0043 92.9918 84.5474 92.9163 85.1089 92.9163C88.5307 92.9163 91.3033 95.6888 91.3033 99.1086C91.3033 102.528 88.5307 105.301 85.1089 105.301C81.6891 105.301 78.9165 102.528 78.9165 99.1086C78.9165 98.5472 78.992 98.0041 79.1329 97.4855H83.4878Z" fill="#6188B3"/>
<mask id="mask1_694_156" style="mask-type:luminance" maskUnits="userSpaceOnUse" x="100" y="73" width="54" height="47">
<path d="M100.875 73.1733H153.527V119.691H100.875V73.1733Z" fill="white"/>
</mask>
<g mask="url(#mask1_694_156)">
<path d="M120.152 114.889C112.214 114.889 105.756 108.431 105.756 100.493C105.756 92.5549 112.214 86.095 120.152 86.095C128.092 86.095 134.55 92.5549 134.55 100.493C134.55 108.431 128.092 114.889 120.152 114.889ZM153.339 73.2897C142.277 80.5825 120.152 81.3175 120.152 81.3175C109.58 81.3175 100.979 89.9191 100.979 100.493C100.979 111.065 109.58 119.666 120.152 119.666C130.726 119.666 139.327 111.065 139.327 100.493C139.327 95.4152 137.341 90.797 134.107 87.3629C146.269 83.4307 153.339 73.2897 153.339 73.2897Z" fill="#6188B3"/>
</g>
<mask id="mask2_694_156" style="mask-type:luminance" maskUnits="userSpaceOnUse" x="42" y="68" width="59" height="57">
<path d="M42.6606 68.1855H100.352V124.917H42.6606V68.1855Z" fill="white"/>
</mask>
<g mask="url(#mask2_694_156)">
<path d="M75.846 119.977C65.1027 119.977 56.3603 111.236 56.3603 100.493C56.3603 89.7496 65.1027 81.0072 75.846 81.0072C86.5892 81.0072 95.3296 89.7496 95.3296 100.493C95.3296 111.236 86.5892 119.977 75.846 119.977ZM75.846 76.2318C75.846 76.2318 53.7204 75.4947 42.6587 68.2039C42.6587 68.2039 49.1675 77.5364 60.4355 81.7667C55.0332 86.2196 51.5828 92.9612 51.5828 100.493C51.5828 113.87 62.4669 124.754 75.846 124.754C89.223 124.754 100.107 113.87 100.107 100.493C100.107 87.1159 89.223 76.2318 75.846 76.2318Z" fill="#6188B3"/>
</g>
<path d="M97.9977 22.4788C56.2906 22.4788 22.4785 56.2908 22.4785 97.9979C22.4785 139.707 56.2906 173.519 97.9977 173.519C139.707 173.519 173.519 139.707 173.519 97.9979C173.519 56.2908 139.707 22.4788 97.9977 22.4788Z" stroke="#6188B3" stroke-width="6"/>
<mask id="mask3_694_156" style="mask-type:luminance" maskUnits="userSpaceOnUse" x="419" y="113" width="11" height="15">
<path d="M419.171 113.941H429.102V127.596H419.171V113.941Z" fill="white"/>
</mask>
<g mask="url(#mask3_694_156)">
<path d="M424.044 127.765L419.489 118.658L424.044 114.103L428.597 118.658L424.044 127.765Z" fill="#6188B3"/>
</g>
<path d="M441.096 97.4855V93.1306C440.58 92.9918 440.035 92.9163 439.473 92.9163C436.053 92.9163 433.281 95.6888 433.281 99.1086C433.281 102.528 436.053 105.301 439.473 105.301C442.895 105.301 445.668 102.528 445.668 99.1086C445.668 98.5472 445.592 98.0041 445.451 97.4855H441.096Z" fill="#6188B3"/>
<path d="M406.488 97.4855V93.1306C407.004 92.9918 407.547 92.9163 408.109 92.9163C411.531 92.9163 414.303 95.6888 414.303 99.1086C414.303 102.528 411.531 105.301 408.109 105.301C404.689 105.301 401.917 102.528 401.917 99.1086C401.917 98.5472 401.992 98.0041 402.133 97.4855H406.488Z" fill="#6188B3"/>
<mask id="mask4_694_156" style="mask-type:luminance" maskUnits="userSpaceOnUse" x="423" y="73" width="54" height="47">
<path d="M423.875 73.1733H476.527V119.691H423.875V73.1733Z" fill="white"/>
</mask>
<g mask="url(#mask4_694_156)">
<path d="M443.152 114.889C435.214 114.889 428.756 108.431 428.756 100.493C428.756 92.5549 435.214 86.095 443.152 86.095C451.092 86.095 457.55 92.5549 457.55 100.493C457.55 108.431 451.092 114.889 443.152 114.889ZM476.339 73.2897C465.277 80.5825 443.152 81.3175 443.152 81.3175C432.58 81.3175 423.979 89.9191 423.979 100.493C423.979 111.065 432.58 119.666 443.152 119.666C453.726 119.666 462.327 111.065 462.327 100.493C462.327 95.4152 460.341 90.797 457.107 87.3629C469.269 83.4307 476.339 73.2897 476.339 73.2897Z" fill="#6188B3"/>
</g>
<mask id="mask5_694_156" style="mask-type:luminance" maskUnits="userSpaceOnUse" x="365" y="68" width="59" height="57">
<path d="M365.661 68.1855H423.352V124.917H365.661V68.1855Z" fill="white"/>
</mask>
<g mask="url(#mask5_694_156)">
<path d="M398.846 119.977C388.103 119.977 379.36 111.236 379.36 100.493C379.36 89.7496 388.103 81.0072 398.846 81.0072C409.589 81.0072 418.33 89.7496 418.33 100.493C418.33 111.236 409.589 119.977 398.846 119.977ZM398.846 76.2318C398.846 76.2318 376.72 75.4947 365.659 68.2039C365.659 68.2039 372.168 77.5364 383.435 81.7667C378.033 86.2196 374.583 92.9612 374.583 100.493C374.583 113.87 385.467 124.754 398.846 124.754C412.223 124.754 423.107 113.87 423.107 100.493C423.107 87.1159 412.223 76.2318 398.846 76.2318Z" fill="#6188B3"/>
</g>
<path d="M420.998 22.4788C379.291 22.4788 345.479 56.2908 345.479 97.9979C345.479 139.707 379.291 173.519 420.998 173.519C462.707 173.519 496.519 139.707 496.519 97.9979C496.519 56.2908 462.707 22.4788 420.998 22.4788Z" stroke="#6188B3" stroke-width="6"/>
<mask id="mask6_694_156" style="mask-type:luminance" maskUnits="userSpaceOnUse" x="256" y="181" width="11" height="15">
<path d="M256.171 181.941H266.102V195.596H256.171V181.941Z" fill="white"/>
</mask>
<g mask="url(#mask6_694_156)">
<path d="M261.044 195.765L256.489 186.658L261.044 182.103L265.597 186.658L261.044 195.765Z" fill="#6188B3"/>
</g>
<path d="M278.096 165.486V161.131C277.58 160.992 277.035 160.916 276.473 160.916C273.053 160.916 270.281 163.689 270.281 167.109C270.281 170.528 273.053 173.301 276.473 173.301C279.895 173.301 282.668 170.528 282.668 167.109C282.668 166.547 282.592 166.004 282.451 165.486H278.096Z" fill="#6188B3"/>
<path d="M243.488 165.486V161.131C244.004 160.992 244.547 160.916 245.109 160.916C248.531 160.916 251.303 163.689 251.303 167.109C251.303 170.528 248.531 173.301 245.109 173.301C241.689 173.301 238.917 170.528 238.917 167.109C238.917 166.547 238.992 166.004 239.133 165.486H243.488Z" fill="#6188B3"/>
<mask id="mask7_694_156" style="mask-type:luminance" maskUnits="userSpaceOnUse" x="260" y="141" width="54" height="47">
<path d="M260.875 141.173H313.527V187.691H260.875V141.173Z" fill="white"/>
</mask>
<g mask="url(#mask7_694_156)">
<path d="M280.152 182.889C272.214 182.889 265.756 176.431 265.756 168.493C265.756 160.555 272.214 154.095 280.152 154.095C288.092 154.095 294.55 160.555 294.55 168.493C294.55 176.431 288.092 182.889 280.152 182.889ZM313.339 141.29C302.277 148.583 280.152 149.318 280.152 149.318C269.58 149.318 260.979 157.919 260.979 168.493C260.979 179.065 269.58 187.666 280.152 187.666C290.726 187.666 299.327 179.065 299.327 168.493C299.327 163.415 297.341 158.797 294.107 155.363C306.269 151.431 313.339 141.29 313.339 141.29Z" fill="#6188B3"/>
</g>
<mask id="mask8_694_156" style="mask-type:luminance" maskUnits="userSpaceOnUse" x="202" y="136" width="59" height="57">
<path d="M202.661 136.186H260.352V192.917H202.661V136.186Z" fill="white"/>
</mask>
<g mask="url(#mask8_694_156)">
<path d="M235.846 187.977C225.103 187.977 216.36 179.236 216.36 168.493C216.36 157.75 225.103 149.007 235.846 149.007C246.589 149.007 255.33 157.75 255.33 168.493C255.33 179.236 246.589 187.977 235.846 187.977ZM235.846 144.232C235.846 144.232 213.72 143.495 202.659 136.204C202.659 136.204 209.168 145.536 220.435 149.767C215.033 154.22 211.583 160.961 211.583 168.493C211.583 181.87 222.467 192.754 235.846 192.754C249.223 192.754 260.107 181.87 260.107 168.493C260.107 155.116 249.223 144.232 235.846 144.232Z" fill="#6188B3"/>
</g>
<path d="M257.998 90.4788C216.291 90.4788 182.479 124.291 182.479 165.998C182.479 207.707 216.291 241.519 257.998 241.519C299.707 241.519 333.519 207.707 333.519 165.998C333.519 124.291 299.707 90.4788 257.998 90.4788Z" stroke="#6188B3" stroke-width="6"/>
</svg>
