<svg width="254" height="55" viewBox="0 0 254 55" fill="none" xmlns="http://www.w3.org/2000/svg">
<path d="M124.964 16.423C123.69 16.423 122.431 16.423 121.184 16.423C119.933 16.423 118.674 16.4411 117.403 16.4713L117.512 27.3904C118.058 27.3602 118.602 27.3239 119.142 27.2817C119.834 27.2515 120.507 27.2182 121.159 27.185C121.812 27.1458 122.5 27.1246 123.225 27.1246L123.164 32.3426C122.552 32.3426 121.935 32.3637 121.316 32.403C120.703 32.4362 120.109 32.4694 119.529 32.4996C118.804 32.5419 118.152 32.5962 117.572 32.6687L117.729 49.0232L112.511 49.1319L112.137 11.3137H115.072C116.739 11.2745 118.393 11.2473 120.036 11.2292C121.685 11.2141 123.346 11.205 125.013 11.205L124.964 16.423Z" fill="#47795B"/>
<path d="M148.164 30.4341C148.34 31.6661 148.303 32.9193 148.056 34.1905C147.796 35.3833 147.343 36.5066 146.691 37.5605C146.005 38.6808 145.157 39.6018 144.142 40.3265C143.085 41.1237 141.908 41.6521 140.603 41.9088C139.951 42.0537 139.305 42.1202 138.671 42.102C138.043 42.0779 137.417 42.0145 136.798 41.9088C136.185 41.7971 135.591 41.6249 135.011 41.3894C134.431 41.1569 133.866 40.8579 133.32 40.4956C132.199 39.7316 131.294 38.7683 130.602 37.6088C129.95 36.5217 129.551 35.3108 129.406 33.9731C129.334 33.3541 129.325 32.7472 129.382 32.1493C129.436 31.5544 129.518 30.9656 129.624 30.3858C129.735 29.8392 129.889 29.2745 130.083 28.6948C130.282 28.115 130.53 27.5715 130.819 27.0642C131.472 25.9046 132.287 24.9474 133.271 24.1895C133.634 23.8996 133.975 23.6761 134.298 23.513C134.627 23.3439 134.953 23.2081 135.277 23.1024C135.856 22.9182 136.472 22.7732 137.125 22.6675C138.251 22.5226 139.41 22.5226 140.603 22.6675C140.932 22.7008 141.243 22.7521 141.533 22.8246C141.896 22.897 142.222 22.9906 142.512 23.1024C143.164 23.353 143.759 23.6791 144.299 24.0807C144.846 24.4431 145.353 24.8779 145.821 25.3852C146.039 25.6359 146.238 25.9046 146.425 26.1945C146.528 26.3394 146.618 26.4693 146.691 26.581L146.908 27.0158C147.527 28.0637 147.947 29.2021 148.164 30.4341ZM142.946 33.1035C143.091 32.4844 143.106 31.8835 142.995 31.3038C142.889 30.6515 142.693 30.0717 142.403 29.5644C142.185 29.2444 142.019 29.0088 141.908 28.8639C141.73 28.6465 141.548 28.4653 141.364 28.3203C141.147 28.2086 140.929 28.0999 140.712 27.9942C140.606 27.955 140.482 27.9187 140.337 27.8855C140.337 27.8855 140.28 27.8855 140.168 27.8855C140.135 27.8463 140.063 27.8251 139.951 27.8251C139.226 27.7526 138.52 27.7526 137.837 27.8251C137.505 27.8976 137.215 27.9701 136.968 28.0425C136.78 28.115 136.635 28.1875 136.533 28.2599C135.621 28.9847 135.023 30.0566 134.733 31.4729C134.588 32.1583 134.552 32.7894 134.624 33.3692C134.697 33.9912 134.86 34.5348 135.119 34.9998C135.699 35.9419 136.605 36.5429 137.837 36.7995C139.027 37.0502 140.096 36.8327 141.038 36.1473C141.512 35.7849 141.911 35.3501 142.234 34.8428C142.596 34.263 142.832 33.6832 142.946 33.1035Z" fill="#47795B"/>
<path d="M169.301 30.2167C169.332 31.0139 169.319 31.8412 169.265 32.6928C169.217 33.5473 169.135 34.3898 169.024 35.2172C168.951 35.652 168.87 36.0869 168.782 36.5217C168.691 36.9565 168.577 37.4125 168.432 37.8866C168.287 38.3939 168.106 38.8831 167.888 39.3481C167.773 39.5655 167.647 39.8041 167.502 40.0607C167.357 40.3114 167.194 40.5439 167.018 40.7613C166.656 41.2384 166.236 41.6642 165.762 42.0416C165.294 42.4221 164.823 42.7392 164.349 42.9958C164.204 43.0683 164.065 43.1347 163.938 43.1891C163.818 43.2374 163.7 43.2827 163.588 43.322L163.153 43.479C163.12 43.479 163.069 43.4911 162.996 43.5152C162.924 43.5333 162.851 43.5575 162.779 43.5877C162.272 43.7326 161.692 43.8262 161.04 43.8655C159.808 43.8987 158.627 43.6451 157.501 43.1045C156.486 42.558 155.616 41.8333 154.892 40.9304C154.167 40.0215 153.66 39.022 153.37 37.9349L153.261 37.5001L153.213 37.2827C153.17 37.2102 153.152 37.1588 153.152 37.1256L153.044 36.4734C153.044 36.256 153.022 36.0476 152.983 35.8453C152.95 35.646 152.917 35.4346 152.887 35.2172C152.699 33.5504 152.624 31.9137 152.657 30.3012C152.696 28.6917 152.754 27.1064 152.826 25.5422L158.044 25.82C157.972 27.342 157.926 28.8488 157.911 30.3375C157.893 31.8201 157.96 33.2665 158.104 34.6737C158.104 34.8609 158.12 35.033 158.153 35.1931C158.192 35.3561 158.213 35.5282 158.213 35.7124L158.322 36.1956C158.322 36.2379 158.322 36.2741 158.322 36.3043L158.37 36.3647C158.37 36.4372 158.37 36.4915 158.37 36.5217C158.482 36.9263 158.684 37.3068 158.974 37.6692C159.222 37.9923 159.53 38.2459 159.892 38.4301C160.182 38.5751 160.508 38.6475 160.87 38.6475C160.943 38.6475 161.021 38.6415 161.112 38.6234C161.209 38.5992 161.308 38.572 161.414 38.5388C161.414 38.5388 161.429 38.5388 161.462 38.5388C161.502 38.5388 161.523 38.5207 161.523 38.4784L161.692 38.4301C161.764 38.4301 161.816 38.4241 161.849 38.406C161.888 38.3818 161.945 38.3546 162.018 38.3214C162.38 38.1372 162.67 37.8987 162.888 37.6088C162.96 37.5363 163.069 37.3551 163.214 37.0652C163.286 36.8478 163.359 36.6153 163.431 36.3647C163.534 36.108 163.615 35.8181 163.673 35.495C163.727 35.1659 163.793 34.8186 163.866 34.4563C164.041 33.1216 164.111 31.7265 164.071 30.2771C164.038 28.8276 163.969 27.3238 163.866 25.7597L169.084 25.4335C169.156 26.2005 169.208 26.9796 169.241 27.7768C169.28 28.574 169.301 29.3893 169.301 30.2167Z" fill="#47795B"/>
<path d="M186.461 23.0421L186.739 28.2601C185.725 28.3325 184.761 28.5349 183.852 28.864C183.418 29.0422 183.001 29.2596 182.608 29.5163C182.421 29.6219 182.222 29.7457 182.004 29.8907L181.787 30.1081L181.521 30.3255C180.797 30.9778 180.253 31.7025 179.891 32.4997C179.528 33.2969 179.347 34.1514 179.347 35.0603H179.287C179.326 36.4705 179.383 37.8747 179.456 39.2758C179.528 40.6709 179.601 42.072 179.673 43.4791L174.455 43.7569C174.093 36.9778 173.839 30.1806 173.694 23.3682L178.912 23.2595C178.912 23.6642 178.918 24.0658 178.936 24.4674C178.952 24.863 178.961 25.2585 178.961 25.6511C179.29 25.4035 179.58 25.2042 179.83 25.0592C180.522 24.6576 181.231 24.3104 181.956 24.0205C183.363 23.483 184.867 23.1569 186.461 23.0421Z" fill="#47795B"/>
<path d="M211.406 25.7597C211.479 26.0919 211.521 26.421 211.539 26.7502C211.554 27.0733 211.563 27.4145 211.563 27.7769C211.563 28.0667 211.554 28.3657 211.539 28.6707C211.521 28.9787 211.494 29.2957 211.455 29.6249C211.382 30.8569 211.207 32.0889 210.935 33.3209C210.67 34.553 210.298 35.7669 209.824 36.9566C209.317 38.1584 208.728 39.2999 208.061 40.3869C207.39 41.474 206.602 42.4886 205.693 43.4307C203.881 45.3875 201.78 46.8913 199.388 47.9361C198.663 48.2682 197.884 48.54 197.057 48.7574V48.8661H196.779C195.112 49.2949 193.446 49.5063 191.779 49.5063V46.088L191.078 12.0143H191.235L191.187 11.7968C192.419 11.507 193.693 11.3258 195.016 11.2533C196.335 11.1808 197.667 11.2895 199.014 11.5794C200.348 11.8693 201.617 12.3253 202.819 12.9443C204.051 13.5573 205.153 14.3334 206.128 15.2755C207.143 16.2176 208.012 17.2534 208.737 18.3797C209.462 19.5 210.042 20.6746 210.476 21.9066C210.95 23.1387 211.261 24.425 211.406 25.7597ZM206.297 29.2384C206.297 28.9908 206.303 28.7401 206.321 28.4895C206.336 28.2328 206.345 27.9762 206.345 27.7165C206.345 27.499 206.336 27.2816 206.321 27.0642C206.303 26.8468 206.276 26.6294 206.237 26.412C206.131 25.4698 205.914 24.5639 205.585 23.6943C204.899 21.8523 203.906 20.3334 202.601 19.1406C201.254 17.8694 199.696 17.051 197.927 16.6887C197.45 16.586 196.942 16.5317 196.405 16.5317L196.948 43.2616C197.021 43.2616 197.081 43.2556 197.13 43.2375C197.184 43.2224 197.232 43.1952 197.274 43.1529C199.014 42.398 200.551 41.2928 201.888 39.8434C203.193 38.4664 204.226 36.8539 204.993 34.9999C205.717 33.1881 206.152 31.2676 206.297 29.2384Z" fill="#47795B"/>
<path d="M227.435 37.4519C227.508 37.2345 227.544 37.0533 227.544 36.9083L232.762 37.1741C232.72 37.5364 232.665 37.8928 232.593 38.237C232.52 38.5843 232.43 38.9013 232.327 39.1912C232.11 39.8042 231.835 40.384 231.506 40.9305C231.11 41.5103 230.675 42.0176 230.201 42.4524C229.621 42.9929 229.005 43.3915 228.353 43.6482C228.281 43.6814 228.19 43.7177 228.087 43.7569L227.87 43.8052L227.483 43.9743C227.411 44.0076 227.338 44.0347 227.266 44.0589C227.194 44.077 227.103 44.1012 227 44.1314L226.565 44.1918C226.276 44.2642 225.965 44.3216 225.635 44.3609C225.312 44.3941 224.986 44.4092 224.657 44.4092C223.392 44.3699 222.16 44.0438 220.961 43.4308C219.874 42.851 218.914 42.072 218.086 41.0875C217.289 40.1152 216.709 39.0463 216.347 37.8867C216.274 37.7418 216.217 37.5908 216.178 37.4277C216.145 37.2586 216.13 37.0865 216.13 36.9083L216.069 36.6909C216.069 36.6517 216.06 36.6154 216.045 36.5822C216.027 36.543 216.021 36.5067 216.021 36.4735C216.021 36.401 216.021 36.3286 216.021 36.2561C216.021 36.1836 216 36.1293 215.96 36.087C215.927 35.5797 215.912 35.0362 215.912 34.4564C215.912 33.3693 216.036 32.3034 216.287 31.2556C216.504 30.2409 216.83 29.2263 217.265 28.2117C217.482 27.7377 217.751 27.2394 218.074 26.714C218.403 26.1916 218.805 25.6933 219.282 25.2162C219.747 24.7512 220.272 24.3526 220.852 24.0205C221.399 23.7004 222 23.4467 222.652 23.2595C223.262 23.0844 223.911 22.9787 224.597 22.9455C225.288 22.9062 225.998 22.9757 226.722 23.1508C227.414 23.338 228.066 23.646 228.679 24.0809C229.226 24.4432 229.733 24.878 230.201 25.3853C230.385 25.6028 230.566 25.8383 230.745 26.0859L230.805 26.1946L230.914 26.3033L231.022 26.5207C231.095 26.6355 231.182 26.7985 231.288 27.016C231.433 27.3058 231.557 27.5897 231.663 27.8615C231.774 28.1272 231.886 28.3899 232.001 28.6466C232.146 29.1539 232.279 29.6551 232.399 30.1443C232.526 30.6275 232.629 31.1076 232.701 31.5817C232.741 31.8323 232.777 32.0769 232.81 32.3185C232.849 32.554 232.886 32.7956 232.919 33.0432C232.958 33.3029 232.985 33.5595 233.003 33.8162C233.018 34.0668 233.028 34.3175 233.028 34.5651L227.81 34.7825C226.722 34.8248 225.614 34.8791 224.488 34.9516C223.368 35.0241 222.247 35.0966 221.13 35.169C221.16 35.3472 221.178 35.471 221.178 35.5435C221.178 35.5857 221.178 35.6341 221.178 35.6884C221.178 35.7367 221.197 35.782 221.239 35.8213C221.239 35.8937 221.239 35.93 221.239 35.93V36.0387C221.269 36.0719 221.287 36.1172 221.287 36.1715C221.287 36.2289 221.305 36.2923 221.347 36.3648C221.492 36.8721 221.746 37.3432 222.108 37.778C222.471 38.2128 222.884 38.5571 223.353 38.8047C223.86 39.0644 224.331 39.1912 224.766 39.1912C224.877 39.1519 224.995 39.1308 225.116 39.1308C225.243 39.1308 225.382 39.1157 225.527 39.0825L225.744 39.0221C225.744 39.0221 225.759 39.0221 225.792 39.0221C225.832 39.0221 225.871 39.007 225.913 38.9738L226.131 38.9134L226.239 38.8651C226.27 38.8651 226.288 38.8651 226.288 38.8651C226.433 38.7926 226.559 38.702 226.674 38.5873C226.819 38.4423 226.964 38.2823 227.109 38.1041C227.212 37.8867 227.32 37.6693 227.435 37.4519ZM222.978 28.9123C222.616 29.2747 222.305 29.7669 222.048 30.3859C222.015 30.4191 221.979 30.5067 221.939 30.6516C222.776 30.5791 223.618 30.5188 224.464 30.4704C225.315 30.4161 226.179 30.3678 227.049 30.3255C227.015 30.2953 227 30.2772 227 30.2772C226.886 29.948 226.777 29.6733 226.674 29.4558C226.632 29.3532 226.614 29.2988 226.614 29.2988C226.614 29.2988 226.596 29.2807 226.565 29.2384L226.505 29.1901C226.433 29.0452 226.342 28.9365 226.239 28.864C225.949 28.5016 225.638 28.2842 225.309 28.2117C224.986 28.1 224.588 28.1151 224.113 28.2601C223.896 28.3325 223.697 28.4261 223.522 28.5379C223.334 28.6436 223.153 28.7674 222.978 28.9123Z" fill="#47795B"/>
<path d="M248.516 23.8029L253.516 25.2765C253.154 26.5085 252.807 27.7345 252.477 28.9484C252.154 30.1563 251.813 31.3762 251.451 32.6082L250.955 34.4563L250.69 35.4346L250.255 36.8478C250.037 37.4276 249.835 38.0285 249.651 38.6476C249.473 39.2605 249.277 39.8554 249.059 40.4352L248.407 42.1745L247.803 43.8655L242.863 43.6964C242.676 43.1166 242.482 42.5218 242.283 41.9088C242.09 41.2897 241.9 40.6737 241.715 40.0608L241.172 38.2127L240.689 36.3647L240.036 34.1905L239.541 32.2821C238.816 29.7154 238.146 27.1789 237.536 24.6726L242.585 23.3681C242.914 24.6424 243.24 25.9016 243.563 27.1487C243.893 28.3988 244.219 29.658 244.542 30.9293L245.52 34.408L245.629 33.9731L245.907 33.0431L246.45 31.195C246.77 30.0053 247.105 28.7854 247.453 27.5352C247.797 26.279 248.153 25.035 248.516 23.8029Z" fill="#47795B"/>
<path d="M53.8948 55L49.6914 46.5933L53.8948 42.39L58.0981 46.5933L53.8948 55Z" fill="#47795B"/>
<path d="M69.6368 27.0501V23.0309C69.1597 22.9011 68.6584 22.8316 68.1391 22.8316C64.9835 22.8316 62.4229 25.3893 62.4229 28.5478C62.4229 31.7064 64.9835 34.264 68.1391 34.264C71.2976 34.264 73.8553 31.7064 73.8553 28.5478C73.8553 28.0284 73.7858 27.5272 73.656 27.0501H69.6368Z" fill="#47795B"/>
<path d="M37.6892 27.0501V23.0309C38.1663 22.9011 38.6675 22.8316 39.1869 22.8316C42.3455 22.8316 44.9031 25.3893 44.9031 28.5478C44.9031 31.7064 42.3455 34.264 39.1869 34.264C36.0283 34.264 33.4707 31.7064 33.4707 28.5478C33.4707 28.0284 33.5402 27.5272 33.67 27.0501H37.6892Z" fill="#47795B"/>
<mask id="mask0_262_1049" style="mask-type:luminance" maskUnits="userSpaceOnUse" x="53" y="4" width="50" height="45">
<path d="M53.7588 4.04333H102.04V48.1061H53.7588V4.04333Z" fill="white"/>
</mask>
<g mask="url(#mask0_262_1049)">
<path d="M71.5352 43.1147C64.2065 43.1147 58.2457 37.1539 58.2457 29.8252C58.2457 22.4965 64.2065 16.5357 71.5352 16.5357C78.8639 16.5357 84.8247 22.4965 84.8247 29.8252C84.8247 37.1539 78.8639 43.1147 71.5352 43.1147ZM102.17 4.71674C91.9571 11.4475 71.5352 12.127 71.5352 12.127C61.7757 12.127 53.834 20.0656 53.834 29.8252C53.834 39.5847 61.7757 47.5264 71.5352 47.5264C81.2947 47.5264 89.2334 39.5847 89.2334 29.8252C89.2334 25.1387 87.4005 20.8749 84.417 17.7073C95.6441 14.0746 102.17 4.71674 102.17 4.71674Z" fill="#47795B"/>
</g>
<mask id="mask1_262_1049" style="mask-type:luminance" maskUnits="userSpaceOnUse" x="0" y="0" width="54" height="53">
<path d="M0 0H53.7589V52.7443H0V0Z" fill="white"/>
</mask>
<g mask="url(#mask1_262_1049)">
<path d="M30.6344 47.8132C20.7178 47.8132 12.6493 39.7447 12.6493 29.8251C12.6493 19.9086 20.7178 11.8401 30.6344 11.8401C40.5509 11.8401 48.6194 19.9086 48.6194 29.8251C48.6194 39.7447 40.5509 47.8132 30.6344 47.8132ZM30.6344 7.42836C30.6344 7.42836 10.2125 6.74894 0 0.0181274C0 0.0181274 6.00609 8.6332 16.4088 12.5406C11.4234 16.6504 8.23762 22.8739 8.23762 29.8251C8.23762 42.1755 18.284 52.2219 30.6344 52.2219C42.9848 52.2219 53.0312 42.1755 53.0312 29.8251C53.0312 17.4778 42.9848 7.42836 30.6344 7.42836Z" fill="#47795B"/>
</g>
</svg>
