<svg width="158" height="158" viewBox="0 0 158 158" fill="none" xmlns="http://www.w3.org/2000/svg">
<mask id="mask0_694_154" style="mask-type:luminance" maskUnits="userSpaceOnUse" x="77" y="94" width="11" height="15">
<path d="M77.8376 95.608H86.4349V107.929H77.8376V95.608Z" fill="white" stroke="white" stroke-width="1.33333"/>
</mask>
<g mask="url(#mask0_694_154)">
<path d="M85.786 99.7892L82.0441 107.275L78.3005 99.7892L82.0441 96.0455L85.786 99.7892Z" fill="#6188B3" stroke="#6188B3" stroke-width="1.33333"/>
</g>
<path d="M98.4296 78.4855V79.1522H99.0963H102.918C102.972 79.463 103.001 79.7822 103.001 80.1086C103.001 83.1601 100.527 85.6343 97.4731 85.6343C94.4215 85.6343 91.9474 83.1602 91.9474 80.1086C91.9474 77.057 94.4215 74.5829 97.4731 74.5829C97.7991 74.5829 98.1189 74.6114 98.4296 74.6654V78.4855Z" fill="#6188B3" stroke="#6188B3" stroke-width="1.33333"/>
<path d="M64.4878 79.1522H65.1545V78.4855V74.6653C65.4644 74.6114 65.7832 74.5829 66.1089 74.5829C69.1627 74.5829 71.6366 77.0572 71.6366 80.1086C71.6366 83.1601 69.1627 85.6343 66.1089 85.6343C63.0573 85.6343 60.5832 83.1602 60.5832 80.1086C60.5832 79.7822 60.6117 79.463 60.6664 79.1522H64.4878Z" fill="#6188B3" stroke="#6188B3" stroke-width="1.33333"/>
<mask id="mask1_694_154" style="mask-type:luminance" maskUnits="userSpaceOnUse" x="81" y="54" width="54" height="47">
<path d="M82.5412 54.84H133.86V100.024H82.5412V54.84Z" fill="white" stroke="white" stroke-width="1.33333"/>
</mask>
<g mask="url(#mask1_694_154)">
<path d="M101.152 62.9842H101.163L101.174 62.9838L101.152 62.3175C101.174 62.9838 101.174 62.9838 101.174 62.9838L101.175 62.9838L101.179 62.9837L101.192 62.9832L101.241 62.9814C101.284 62.9797 101.348 62.9772 101.432 62.9735C101.599 62.9663 101.845 62.9547 102.161 62.9374C102.792 62.9028 103.706 62.8452 104.836 62.7532C107.095 62.5694 110.224 62.2478 113.702 61.6969C119.432 60.7891 126.184 59.2478 131.549 56.6302C130.815 57.4379 129.906 58.3728 128.832 59.3612C125.589 62.3471 120.862 65.8014 114.902 67.7286L113.899 68.0528L114.621 68.82C117.744 72.136 119.66 76.5927 119.66 81.4929C119.66 91.6964 111.357 99.9995 101.152 99.9995C90.9482 99.9995 82.6452 91.6964 82.6452 81.4929C82.6452 71.2872 90.9483 62.9842 101.152 62.9842ZM86.0893 81.4929C86.0893 89.7991 92.8456 96.5553 101.152 96.5553C109.46 96.5553 116.216 89.7991 116.216 81.4929C116.216 73.1867 109.46 66.4284 101.152 66.4284C92.8455 66.4284 86.0893 73.1868 86.0893 81.4929Z" fill="#6188B3" stroke="#6188B3" stroke-width="1.33333"/>
</g>
<mask id="mask2_694_154" style="mask-type:luminance" maskUnits="userSpaceOnUse" x="23" y="49" width="59" height="57">
<path d="M24.3273 49.8522H80.6854V105.251H24.3273V49.8522Z" fill="white" stroke="white" stroke-width="1.33333"/>
</mask>
<g mask="url(#mask2_694_154)">
<path d="M56.8238 57.898L56.8349 57.8984H56.846C69.8548 57.8984 80.4404 68.4841 80.4404 81.4929C80.4404 94.5017 69.8548 105.087 56.846 105.087C43.8351 105.087 33.2495 94.5017 33.2495 81.4929C33.2495 74.1693 36.6038 67.6133 41.8595 63.2811L42.7492 62.5478L41.6698 62.1426C36.144 60.068 31.7735 56.737 28.7789 53.9139C27.8724 53.0592 27.0937 52.2528 26.4489 51.5443C31.814 54.1611 38.5662 55.7024 44.2962 56.6103C47.7738 57.1614 50.9025 57.4831 53.1619 57.6671C54.2919 57.7592 55.2053 57.8168 55.8371 57.8515C56.1531 57.8688 56.3987 57.8804 56.5658 57.8877C56.6494 57.8914 56.7133 57.8939 56.7566 57.8956L56.8061 57.8974L56.8189 57.8979L56.8224 57.898L56.8233 57.898C56.8236 57.898 56.8238 57.898 56.846 57.2318L56.8238 57.898ZM36.6937 81.4929C36.6937 92.6044 45.7346 101.643 56.846 101.643C67.9574 101.643 76.9963 92.6043 76.9963 81.4929C76.9963 70.3815 67.9575 61.3405 56.846 61.3405C45.7345 61.3405 36.6937 70.3814 36.6937 81.4929Z" fill="#6188B3" stroke="#6188B3" stroke-width="1.33333"/>
</g>
<path d="M78.9977 3.47876C37.2906 3.47876 3.47852 37.2908 3.47852 78.9979C3.47852 120.707 37.2906 154.519 78.9977 154.519C120.707 154.519 154.519 120.707 154.519 78.9979C154.519 37.2908 120.707 3.47876 78.9977 3.47876Z" stroke="#6188B3" stroke-width="6"/>
</svg>
