<svg width="86" height="120" viewBox="0 0 86 120" fill="none" xmlns="http://www.w3.org/2000/svg">
<path d="M27.6059 92.4921C27.6059 92.4921 22.9239 95.2634 30.6157 96.3026C39.6453 97.3418 44.3272 96.9954 54.3601 95.2634C54.3601 95.2634 57.0355 96.9954 60.7142 98.3811C38.3076 108.427 9.54684 97.6882 27.6059 92.4921ZM24.5961 79.6748C24.5961 79.6748 19.5796 83.4853 27.2715 84.1782C36.9698 85.2174 44.6617 85.2174 58.0387 82.7925C58.0387 82.7925 60.0453 84.5246 63.0551 85.5638C35.6321 93.8777 5.19929 86.2566 24.5961 79.6748Z" fill="white"/>
<path d="M48.0059 57.5044C53.6912 64.0862 46.6682 69.9752 46.6682 69.9752C46.6682 69.9752 60.7141 62.3541 54.0256 53.001C48.0059 43.9943 43.3239 39.8373 68.7404 24.5952C68.7404 24.5952 28.9436 34.6412 48.0059 57.5044Z" fill="white"/>
<path d="M77.7702 102.192C77.7702 102.192 81.1145 104.963 74.426 107.388C61.3833 111.545 19.9144 112.584 8.54387 107.388C4.53075 105.656 12.2226 102.884 14.5636 102.538L18.5767 101.845C13.8947 98.7275 -11.1873 108.427 5.86846 111.545C52.0194 119.166 89.8096 108.081 77.7702 102.192ZM29.6128 65.8183C29.6128 65.8183 8.54387 71.0145 22.2554 73.093C27.9406 73.7858 39.3111 73.7858 50.0128 72.7465C58.7079 72.0537 67.403 70.3217 67.403 70.3217L62.0522 73.4394C40.6489 78.982 -0.485655 76.2107 11.5537 70.3217C21.5865 65.4719 29.6128 65.8183 29.6128 65.8183ZM67.403 87.6423C88.8063 76.2107 78.7735 64.7791 71.7506 66.5111L69.4096 67.204C69.4096 67.204 70.0784 66.1647 71.4161 65.4719C85.1276 60.6221 95.8293 80.3676 66.7342 88.3351L67.403 87.6423Z" fill="white"/>
<path d="M54.026 0C54.026 0 66.0653 12.4708 42.6554 31.5235C23.9275 47.112 38.6423 55.7724 42.6554 65.8183C31.9538 55.4259 23.9275 46.4192 29.2784 38.1053C36.9702 25.9809 59.0424 19.7455 54.026 0Z" fill="white"/>
<path d="M31.6193 119.512C52.3538 120.898 84.4588 118.473 85.1276 108.427C85.1276 108.427 83.7899 112.238 68.0719 115.355C50.3472 118.819 28.2751 118.473 15.2324 116.048C15.2324 116.048 17.9078 118.473 31.6193 119.512Z" fill="white"/>
</svg>
