<svg width="115" height="114" viewBox="0 0 115 114" fill="none" xmlns="http://www.w3.org/2000/svg">
<path d="M0.459961 0.308594H114.01V113.859H0.459961V0.308594Z" fill="white"/>
<path d="M104.717 86.7773C103.886 81.5963 100.507 77.2464 90.5014 73.1879C87.0258 71.5905 83.1509 70.4464 81.996 67.8127C81.5858 66.2799 81.5318 65.4164 81.7909 64.4882C82.5356 61.4767 86.13 60.5377 88.9795 61.4012C90.8144 62.0164 92.5522 63.4305 93.5992 65.6863C98.4996 62.513 98.4888 62.5345 101.91 60.3543C100.658 58.4114 99.9891 57.5154 99.1688 56.6844C96.2221 53.3923 92.2068 51.6977 85.7846 51.8272C84.6728 51.9675 83.5504 52.1185 82.4385 52.259C79.2329 53.0685 76.1781 54.7523 74.3864 57.0082C69.0111 63.1067 70.5438 73.7816 77.0848 78.1748C83.5287 83.0104 92.9948 84.1113 94.2037 88.6339C95.3802 94.1711 90.1345 95.9628 84.9211 95.326C81.0785 94.5273 78.9414 92.5736 76.6315 89.0225C72.3788 91.4835 72.3788 91.4835 68.0074 93.9984C69.0436 96.2651 70.1336 97.2905 71.8715 99.255C80.0964 107.599 100.68 107.188 104.371 94.5597C104.523 94.1278 105.516 91.2351 104.717 86.7773ZM62.1894 52.4963H51.5684C51.5684 61.671 51.5253 70.7809 51.5253 79.9556C51.5253 85.795 51.8275 91.1487 50.8777 92.7894C49.3234 96.0166 45.2973 95.6174 43.4624 94.9912C41.5951 94.0737 40.6452 92.7677 39.5442 90.9221C39.242 90.3932 39.0154 89.983 38.9397 89.9506C36.0579 91.71 33.1866 93.4801 30.3047 95.2396C31.7404 98.1863 33.8558 100.744 36.5651 102.407C40.6127 104.835 46.0528 105.58 51.7412 104.274C55.4434 103.194 58.6383 100.96 60.3113 97.5602C62.7291 93.1024 62.211 87.7055 62.1894 81.7366C62.2434 72.0006 62.1894 62.2647 62.1894 52.4963Z" fill="#47795B"/>
</svg>
