<svg width="462" height="249" viewBox="0 0 462 249" fill="none" xmlns="http://www.w3.org/2000/svg">
<path d="M243.406 248.313L224.417 210.339L243.406 191.349L262.39 210.339L243.406 248.313Z" fill="#47795B"/>
<path d="M314.5 122.078V103.927C312.338 103.339 310.078 103.026 307.734 103.026C293.479 103.026 281.917 114.583 281.917 128.844C281.917 143.099 293.479 154.661 307.734 154.661C321.995 154.661 333.552 143.099 333.552 128.844C333.552 126.5 333.239 124.24 332.651 122.078H314.5Z" fill="#47795B"/>
<path d="M170.214 122.078V103.927C172.37 103.339 174.636 103.026 176.979 103.026C191.24 103.026 202.797 114.583 202.797 128.844C202.797 143.099 191.24 154.661 176.979 154.661C162.719 154.661 151.162 143.099 151.162 128.844C151.162 126.5 151.474 124.24 152.057 122.078H170.214Z" fill="#47795B"/>
<path d="M323.073 194.635C289.974 194.635 263.052 167.708 263.052 134.615C263.052 101.516 289.974 74.5938 323.073 74.5938C356.167 74.5938 383.094 101.516 383.094 134.615C383.094 167.708 356.167 194.635 323.073 194.635ZM461.427 21.2084C415.307 51.6094 323.073 54.6771 323.073 54.6771C278.995 54.6771 243.135 90.5365 243.135 134.615C243.135 178.688 278.995 214.547 323.073 214.547C367.146 214.547 403.005 178.688 403.005 134.615C403.005 113.448 394.724 94.1928 381.245 79.8803C431.953 63.4792 461.427 21.2084 461.427 21.2084Z" fill="#47795B"/>
<path d="M138.354 215.844C93.5677 215.844 57.125 179.401 57.125 134.615C57.125 89.8229 93.5677 53.3854 138.354 53.3854C183.146 53.3854 219.583 89.8229 219.583 134.615C219.583 179.401 183.146 215.844 138.354 215.844ZM138.354 33.4688C138.354 33.4688 46.1198 30.3958 0 0C0 0 27.1354 38.9115 74.1146 56.5469C51.5938 75.1146 37.2135 103.214 37.2135 134.615C37.2135 190.385 82.5833 235.76 138.354 235.76C194.125 235.76 239.5 190.385 239.5 134.615C239.5 78.8438 194.125 33.4688 138.354 33.4688Z" fill="#47795B"/>
</svg>
