<svg width="462" height="249" viewBox="0 0 462 249" fill="none" xmlns="http://www.w3.org/2000/svg">
    <path
        d="m243.406 248.313-18.989-37.974 18.989-18.99 18.984 18.99zM314.5 122.078v-18.151a25.7 25.7 0 0 0-6.766-.901c-14.255 0-25.817 11.557-25.817 25.818 0 14.255 11.562 25.817 25.817 25.817 14.261 0 25.818-11.562 25.818-25.817a25.7 25.7 0 0 0-.901-6.766zm-144.286 0v-18.151a25.7 25.7 0 0 1 6.765-.901c14.261 0 25.818 11.557 25.818 25.818 0 14.255-11.557 25.817-25.818 25.817-14.26 0-25.817-11.562-25.817-25.817 0-2.344.312-4.604.895-6.766z"
        fill="#fff" />
    <path
        d="M323.073 194.635c-33.099 0-60.021-26.927-60.021-60.02 0-33.099 26.922-60.021 60.021-60.021 33.094 0 60.021 26.922 60.021 60.021 0 33.093-26.927 60.02-60.021 60.02M461.427 21.208c-46.12 30.401-138.354 33.47-138.354 33.47-44.078 0-79.938 35.859-79.938 79.937 0 44.073 35.86 79.932 79.938 79.932 44.073 0 79.932-35.859 79.932-79.932 0-21.167-8.281-40.422-21.76-54.735 50.708-16.4 80.182-58.672 80.182-58.672M138.354 215.844c-44.786 0-81.229-36.443-81.229-81.229 0-44.792 36.443-81.23 81.229-81.23 44.792 0 81.229 36.438 81.229 81.23 0 44.786-36.437 81.229-81.229 81.229m0-182.375S46.12 30.396 0 0c0 0 27.135 38.912 74.115 56.547-22.521 18.568-36.901 46.667-36.901 78.068 0 55.77 45.37 101.145 101.14 101.145S239.5 190.385 239.5 134.615c0-55.771-45.375-101.146-101.146-101.146"
        fill="#fff" />
</svg>