<svg width="103" height="55" viewBox="0 0 103 55" fill="none" xmlns="http://www.w3.org/2000/svg">
<path d="M53.8945 55L49.6912 46.5933L53.8945 42.3899L58.0979 46.5933L53.8945 55Z" fill="#477974"/>
<path d="M69.6368 27.0501V23.031C69.1597 22.9011 68.6584 22.8317 68.1391 22.8317C64.9835 22.8317 62.4229 25.3893 62.4229 28.5479C62.4229 31.7064 64.9835 34.2641 68.1391 34.2641C71.2976 34.2641 73.8553 31.7064 73.8553 28.5479C73.8553 28.0285 73.7858 27.5272 73.656 27.0501H69.6368Z" fill="#477974"/>
<path d="M37.6889 27.0501V23.031C38.166 22.9011 38.6673 22.8317 39.1867 22.8317C42.3452 22.8317 44.9029 25.3893 44.9029 28.5479C44.9029 31.7064 42.3452 34.2641 39.1867 34.2641C36.0281 34.2641 33.4705 31.7064 33.4705 28.5479C33.4705 28.0285 33.5399 27.5272 33.6698 27.0501H37.6889Z" fill="#477974"/>
<mask id="mask0_773_44" style="mask-type:luminance" maskUnits="userSpaceOnUse" x="53" y="4" width="50" height="45">
<path d="M53.7588 4.04333H102.04V48.1061H53.7588V4.04333Z" fill="white"/>
</mask>
<g mask="url(#mask0_773_44)">
<path d="M71.5354 43.1146C64.2067 43.1146 58.2459 37.1538 58.2459 29.8251C58.2459 22.4964 64.2067 16.5356 71.5354 16.5356C78.8641 16.5356 84.8249 22.4964 84.8249 29.8251C84.8249 37.1538 78.8641 43.1146 71.5354 43.1146ZM102.17 4.71667C91.9574 11.4475 71.5354 12.1269 71.5354 12.1269C61.7759 12.1269 53.8342 20.0656 53.8342 29.8251C53.8342 39.5846 61.7759 47.5263 71.5354 47.5263C81.295 47.5263 89.2336 39.5846 89.2336 29.8251C89.2336 25.1386 87.4007 20.8748 84.4173 17.7072C95.6444 14.0746 102.17 4.71667 102.17 4.71667Z" fill="#477974"/>
</g>
<mask id="mask1_773_44" style="mask-type:luminance" maskUnits="userSpaceOnUse" x="0" y="0" width="54" height="53">
<path d="M0 0H53.7589V52.7443H0V0Z" fill="white"/>
</mask>
<g mask="url(#mask1_773_44)">
<path d="M30.6344 47.8133C20.7178 47.8133 12.6493 39.7448 12.6493 29.8252C12.6493 19.9087 20.7178 11.8401 30.6344 11.8401C40.5509 11.8401 48.6194 19.9087 48.6194 29.8252C48.6194 39.7448 40.5509 47.8133 30.6344 47.8133ZM30.6344 7.42842C30.6344 7.42842 10.2125 6.749 0 0.0181885C0 0.0181885 6.00609 8.63326 16.4088 12.5407C11.4234 16.6504 8.23762 22.874 8.23762 29.8252C8.23762 42.1756 18.284 52.222 30.6344 52.222C42.9848 52.222 53.0312 42.1756 53.0312 29.8252C53.0312 17.4778 42.9848 7.42842 30.6344 7.42842Z" fill="#477974"/>
</g>
</svg>
