<svg width="83" height="45" viewBox="0 0 83 45" fill="none" xmlns="http://www.w3.org/2000/svg">
<path d="M43.3196 44.5299L39.9424 37.7726L43.3196 34.3926L46.6997 37.7726L43.3196 44.5299Z" fill="#6188B3"/>
<path d="M55.9727 22.0614V18.8325C55.5905 18.727 55.1883 18.6699 54.769 18.6699C52.2332 18.6699 50.1738 20.7293 50.1738 23.2651C50.1738 25.8037 52.2332 27.8631 54.769 27.8631C57.3076 27.8631 59.367 25.8037 59.367 23.2651C59.367 22.8487 59.31 22.4465 59.2044 22.0614H55.9727Z" fill="#6188B3"/>
<path d="M30.2928 22.0614V18.8325C30.6779 18.727 31.0801 18.6699 31.4965 18.6699C34.0352 18.6699 36.0946 20.7293 36.0946 23.2651C36.0946 25.8037 34.0352 27.8631 31.4965 27.8631C28.9608 27.8631 26.9014 25.8037 26.9014 23.2651C26.9014 22.8487 26.9584 22.4465 27.064 22.0614H30.2928Z" fill="#6188B3"/>
<path d="M57.4982 34.9768C51.6081 34.9768 46.8161 30.1848 46.8161 24.2918C46.8161 18.4017 51.6081 13.6097 57.4982 13.6097C63.3912 13.6097 68.1832 18.4017 68.1832 24.2918C68.1832 30.1848 63.3912 34.9768 57.4982 34.9768ZM82.1256 4.1084C73.9165 9.51935 57.4982 10.067 57.4982 10.067C49.6542 10.067 43.2734 16.4478 43.2734 24.2918C43.2734 32.1387 49.6542 38.5195 57.4982 38.5195C65.3451 38.5195 71.7259 32.1387 71.7259 24.2918C71.7259 20.5267 70.2512 17.0981 67.8524 14.5509C76.8773 11.633 82.1256 4.1084 82.1256 4.1084Z" fill="#6188B3"/>
<path d="M24.6226 38.7498C16.6531 38.7498 10.1668 32.2635 10.1668 24.2911C10.1668 16.3216 16.6531 9.83525 24.6226 9.83525C32.595 9.83525 39.0813 16.3216 39.0813 24.2911C39.0813 32.2635 32.595 38.7498 24.6226 38.7498ZM24.6226 6.28975C24.6226 6.28975 8.20718 5.74494 -0.00195312 0.333984C-0.00195312 0.333984 4.82712 7.25955 13.1903 10.3972C9.1827 13.7031 6.62126 18.7033 6.62126 24.2911C6.62126 34.2174 14.6992 42.2953 24.6226 42.2953C34.5489 42.2953 42.6268 34.2174 42.6268 24.2911C42.6268 14.3648 34.5489 6.28975 24.6226 6.28975Z" fill="#6188B3"/>
</svg>
