<svg width="103" height="55" viewBox="0 0 103 55" fill="none" xmlns="http://www.w3.org/2000/svg">
<path d="M53.8948 55L49.6914 46.5933L53.8948 42.3899L58.0981 46.5933L53.8948 55Z" fill="#6188B3"/>
<path d="M69.6368 27.0501V23.031C69.1597 22.9011 68.6584 22.8317 68.1391 22.8317C64.9835 22.8317 62.4229 25.3893 62.4229 28.5479C62.4229 31.7064 64.9835 34.2641 68.1391 34.2641C71.2976 34.2641 73.8553 31.7064 73.8553 28.5479C73.8553 28.0285 73.7858 27.5272 73.656 27.0501H69.6368Z" fill="#6188B3"/>
<path d="M37.6892 27.0501V23.031C38.1663 22.9011 38.6675 22.8317 39.1869 22.8317C42.3455 22.8317 44.9031 25.3893 44.9031 28.5479C44.9031 31.7064 42.3455 34.2641 39.1869 34.2641C36.0283 34.2641 33.4707 31.7064 33.4707 28.5479C33.4707 28.0285 33.5402 27.5272 33.67 27.0501H37.6892Z" fill="#6188B3"/>
<mask id="mask0_845_558" style="mask-type:luminance" maskUnits="userSpaceOnUse" x="53" y="4" width="50" height="45">
<path d="M53.7588 4.04333H102.04V48.1061H53.7588V4.04333Z" fill="white"/>
</mask>
<g mask="url(#mask0_845_558)">
<path d="M71.5352 43.1146C64.2065 43.1146 58.2457 37.1538 58.2457 29.8251C58.2457 22.4964 64.2065 16.5356 71.5352 16.5356C78.8639 16.5356 84.8247 22.4964 84.8247 29.8251C84.8247 37.1538 78.8639 43.1146 71.5352 43.1146ZM102.17 4.71667C91.9571 11.4475 71.5352 12.1269 71.5352 12.1269C61.7757 12.1269 53.834 20.0656 53.834 29.8251C53.834 39.5846 61.7757 47.5263 71.5352 47.5263C81.2947 47.5263 89.2334 39.5846 89.2334 29.8251C89.2334 25.1386 87.4005 20.8748 84.417 17.7072C95.6441 14.0746 102.17 4.71667 102.17 4.71667Z" fill="#6188B3"/>
</g>
<mask id="mask1_845_558" style="mask-type:luminance" maskUnits="userSpaceOnUse" x="0" y="0" width="54" height="53">
<path d="M0 0H53.7589V52.7443H0V0Z" fill="white"/>
</mask>
<g mask="url(#mask1_845_558)">
<path d="M30.6344 47.8133C20.7178 47.8133 12.6493 39.7448 12.6493 29.8252C12.6493 19.9087 20.7178 11.8401 30.6344 11.8401C40.5509 11.8401 48.6194 19.9087 48.6194 29.8252C48.6194 39.7448 40.5509 47.8133 30.6344 47.8133ZM30.6344 7.42842C30.6344 7.42842 10.2125 6.749 0 0.0181885C0 0.0181885 6.00609 8.63326 16.4088 12.5407C11.4234 16.6504 8.23762 22.874 8.23762 29.8252C8.23762 42.1756 18.284 52.222 30.6344 52.222C42.9848 52.222 53.0312 42.1756 53.0312 29.8252C53.0312 17.4778 42.9848 7.42842 30.6344 7.42842Z" fill="#6188B3"/>
</g>
</svg>
