<svg width="630" height="276" viewBox="0 0 630 276" fill="none" xmlns="http://www.w3.org/2000/svg">
<path d="M445.041 364.89L410.409 295.597L445.041 260.936L479.703 295.597L445.041 364.89Z" fill="#504DB3"/>
<path d="M574.795 134.468V101.357C570.876 100.274 566.752 99.6895 562.452 99.6895C536.449 99.6895 515.33 120.808 515.33 146.811C515.33 172.844 536.449 193.962 562.452 193.962C588.484 193.962 609.603 172.844 609.603 146.811C609.603 142.541 609.018 138.417 607.936 134.468H574.795Z" fill="#504DB3"/>
<path d="M311.452 134.468V101.357C315.401 100.274 319.525 99.6895 323.796 99.6895C349.828 99.6895 370.947 120.808 370.947 146.811C370.947 172.844 349.828 193.962 323.796 193.962C297.792 193.962 276.674 172.844 276.674 146.811C276.674 142.541 277.259 138.417 278.341 134.468H311.452Z" fill="#504DB3"/>
<path d="M590.456 266.929C530.055 266.929 480.915 217.789 480.915 157.358C480.915 96.9568 530.055 47.8167 590.456 47.8167C650.887 47.8167 700.027 96.9568 700.027 157.358C700.027 217.789 650.887 266.929 590.456 266.929ZM843.001 -49.6152C758.819 5.87214 590.456 11.4882 590.456 11.4882C510.018 11.4882 444.586 76.9205 444.586 157.358C444.586 237.825 510.018 303.258 590.456 303.258C670.923 303.258 736.355 237.825 736.355 157.358C736.355 118.748 721.233 83.5896 696.634 57.4693C789.181 27.5464 843.001 -49.6152 843.001 -49.6152Z" fill="#504DB3"/>
<path d="M253.312 305.628C171.587 305.628 105.072 239.114 105.072 157.36C105.072 75.6351 171.587 9.12044 253.312 9.12044C335.066 9.12044 401.58 75.6351 401.58 157.36C401.58 239.114 335.066 305.628 253.312 305.628ZM253.312 -27.2374C253.312 -27.2374 84.9776 -32.8242 0.795898 -88.3115C0.795898 -88.3115 50.3163 -17.2924 136.077 14.8827C94.9811 48.7835 68.7145 100.059 68.7145 157.36C68.7145 259.15 151.551 341.986 253.312 341.986C355.102 341.986 437.938 259.15 437.938 157.36C437.938 55.5695 355.102 -27.2374 253.312 -27.2374Z" fill="#504DB3"/>
</svg>
