<svg width="124" height="123" viewBox="0 0 124 123" fill="none" xmlns="http://www.w3.org/2000/svg">
<path d="M61.3783 0C29.9878 0 31.9468 13.6126 31.9468 13.6126L31.9855 27.7159H61.9386V31.9468H20.0808C20.0808 31.9468 0 29.6671 0 61.3435C0 93.0122 17.5306 91.8916 17.5306 91.8916H27.9941V77.1933C27.9941 77.1933 27.4299 59.6627 45.2464 59.6627H74.9522C74.9522 59.6627 91.6443 59.9332 91.6443 43.5309V16.41C91.6443 16.41 94.1791 0 61.3783 0ZM44.8601 9.48205C46.2896 9.48205 47.6606 10.0499 48.6715 11.0608C49.6823 12.0716 50.2502 13.4427 50.2502 14.8722C50.2502 16.3018 49.6823 17.6728 48.6715 18.6836C47.6606 19.6945 46.2896 20.2624 44.8601 20.2624C44.1519 20.2634 43.4506 20.1247 42.7961 19.8541C42.1417 19.5836 41.5471 19.1866 41.0464 18.6859C40.5456 18.1852 40.1486 17.5906 39.8781 16.9361C39.6076 16.2817 39.4689 15.5803 39.4699 14.8722C39.4699 11.8931 41.881 9.48205 44.8601 9.48205Z" fill="white"/>
<path d="M62.2666 123C93.657 123 91.698 109.387 91.698 109.387L91.6593 95.2841H61.7063V91.0531H103.56C103.56 91.0531 123.645 93.3329 123.645 61.6604C123.645 29.9878 106.114 31.1122 106.114 31.1122H95.6508V45.8067C95.6508 45.8067 96.2149 63.3373 78.3984 63.3373H48.6926C48.6926 63.3373 32.0005 63.0668 32.0005 79.4691V106.59C32.0005 106.59 29.4658 123 62.2666 123ZM78.7848 113.518C78.0766 113.519 77.3753 113.38 76.7209 113.11C76.0664 112.839 75.4718 112.442 74.9711 111.941C74.4704 111.441 74.0734 110.846 73.8028 110.192C73.5323 109.537 73.3936 108.836 73.3946 108.128C73.3954 107.063 73.7118 106.022 74.304 105.137C74.8961 104.252 75.7374 103.562 76.7215 103.155C77.7055 102.747 78.7882 102.641 79.8327 102.849C80.8772 103.057 81.8365 103.57 82.5896 104.323C83.3427 105.076 83.8556 106.035 84.0635 107.08C84.2715 108.124 84.1651 109.207 83.7579 110.191C83.3507 111.175 82.661 112.016 81.7758 112.609C80.8906 113.201 79.8498 113.517 78.7848 113.518Z" fill="white"/>
</svg>
