<svg width="123" height="123" viewBox="0 0 123 123" fill="none" xmlns="http://www.w3.org/2000/svg">
<path d="M9.60938 0H113.391C118.698 0 123 4.30212 123 9.60938V113.391C123 118.698 118.698 123 113.391 123H9.60938C4.30212 123 0 118.698 0 113.391V9.60938C0 4.30212 4.30212 0 9.60938 0Z" fill="white"/>
<path d="M72.3192 96.322V109.593C74.4775 110.699 77.0302 111.528 79.9769 112.081C82.9236 112.634 86.0294 112.91 89.2946 112.91C92.4763 112.91 95.4994 112.606 98.363 111.998C101.227 111.389 103.738 110.387 105.896 108.991C108.054 107.595 109.763 105.77 111.022 103.517C112.281 101.264 112.91 98.4788 112.91 95.1612C112.91 92.7559 112.55 90.6476 111.831 88.8367C111.12 87.0381 110.062 85.3967 108.718 84.0056C107.363 82.5955 105.737 81.3309 103.842 80.2109C101.946 79.0914 99.8087 78.0339 97.429 77.0388C95.6858 76.3196 94.1229 75.6219 92.7391 74.9445C91.3559 74.267 90.1797 73.5761 89.2115 72.8708C88.2429 72.1659 87.4958 71.4193 86.9701 70.6313C86.4445 69.8433 86.1817 68.9521 86.1817 67.9565C86.1817 67.0441 86.4166 66.222 86.887 65.4893C87.3574 64.7566 88.0219 64.1277 88.8795 63.6025C89.7372 63.0769 90.7884 62.6695 92.0338 62.3788C93.2787 62.0886 94.6624 61.9435 96.1841 61.9435C97.2911 61.9435 98.4601 62.0266 99.691 62.1924C100.922 62.3581 102.161 62.6137 103.406 62.9597C104.647 63.3038 105.861 63.7405 107.037 64.2661C108.178 64.7714 109.269 65.3822 110.295 66.0904V53.6909C108.276 52.9169 106.069 52.3432 103.676 51.9699C101.282 51.5966 98.536 51.4102 95.437 51.4102C92.2827 51.4102 89.2946 51.7489 86.4724 52.4263C83.6501 53.1033 81.1665 54.1608 79.0222 55.5984C76.8779 57.0364 75.1833 58.868 73.9379 61.0935C72.693 63.3191 72.0703 65.9799 72.0703 69.0765C72.0703 73.0298 73.2114 76.4027 75.4946 79.1952C77.7773 81.9872 81.2425 84.3511 85.891 86.2864C87.607 86.9853 89.309 87.7181 90.996 88.4846C92.5734 89.2033 93.936 89.9495 95.0843 90.7235C96.2326 91.4976 97.1388 92.3408 97.8028 93.2532C98.4668 94.1656 98.7988 95.2025 98.7988 96.3638C98.8043 97.1995 98.5895 98.022 98.1761 98.7483C97.7615 99.4806 97.1316 100.117 96.2879 100.656C95.4442 101.195 94.3924 101.616 93.1336 101.92C91.8748 102.225 90.4012 102.377 88.7133 102.377C85.8357 102.377 82.9861 101.872 80.1638 100.863C77.3411 99.8539 74.7263 98.3404 72.3192 96.322ZM50.2003 63.2979H67.2656V52.3711H19.6992V63.2979H36.6814V111.949H50.2003V63.2979Z" fill="#47795B"/>
</svg>
