<svg width="370" height="196" viewBox="0 0 370 196" fill="none" xmlns="http://www.w3.org/2000/svg">
<mask id="mask0_694_148" style="mask-type:luminance" maskUnits="userSpaceOnUse" x="96" y="113" width="11" height="15">
<path d="M96.1709 113.941H106.102V127.596H96.1709V113.941Z" fill="white"/>
</mask>
<g mask="url(#mask0_694_148)">
<path d="M101.044 127.765L96.4893 118.658L101.044 114.103L105.597 118.658L101.044 127.765Z" fill="#47795B"/>
</g>
<path d="M118.096 97.4855V93.1306C117.58 92.9918 117.035 92.9163 116.473 92.9163C113.053 92.9163 110.281 95.6888 110.281 99.1086C110.281 102.528 113.053 105.301 116.473 105.301C119.895 105.301 122.668 102.528 122.668 99.1086C122.668 98.5472 122.592 98.0041 122.451 97.4855H118.096Z" fill="#47795B"/>
<path d="M83.4878 97.4855V93.1306C84.0043 92.9918 84.5474 92.9163 85.1089 92.9163C88.5307 92.9163 91.3033 95.6888 91.3033 99.1086C91.3033 102.528 88.5307 105.301 85.1089 105.301C81.6891 105.301 78.9165 102.528 78.9165 99.1086C78.9165 98.5472 78.992 98.0041 79.1329 97.4855H83.4878Z" fill="#47795B"/>
<mask id="mask1_694_148" style="mask-type:luminance" maskUnits="userSpaceOnUse" x="100" y="73" width="54" height="47">
<path d="M100.875 73.1733H153.527V119.691H100.875V73.1733Z" fill="white"/>
</mask>
<g mask="url(#mask1_694_148)">
<path d="M120.152 114.889C112.214 114.889 105.756 108.431 105.756 100.493C105.756 92.5549 112.214 86.095 120.152 86.095C128.092 86.095 134.55 92.5549 134.55 100.493C134.55 108.431 128.092 114.889 120.152 114.889ZM153.339 73.2897C142.277 80.5825 120.152 81.3175 120.152 81.3175C109.58 81.3175 100.979 89.9191 100.979 100.493C100.979 111.065 109.58 119.666 120.152 119.666C130.726 119.666 139.327 111.065 139.327 100.493C139.327 95.4152 137.341 90.797 134.107 87.3629C146.269 83.4307 153.339 73.2897 153.339 73.2897Z" fill="#47795B"/>
</g>
<mask id="mask2_694_148" style="mask-type:luminance" maskUnits="userSpaceOnUse" x="42" y="68" width="59" height="57">
<path d="M42.6606 68.1855H100.352V124.917H42.6606V68.1855Z" fill="white"/>
</mask>
<g mask="url(#mask2_694_148)">
<path d="M75.846 119.977C65.1027 119.977 56.3603 111.236 56.3603 100.493C56.3603 89.7496 65.1027 81.0072 75.846 81.0072C86.5892 81.0072 95.3296 89.7496 95.3296 100.493C95.3296 111.236 86.5892 119.977 75.846 119.977ZM75.846 76.2318C75.846 76.2318 53.7204 75.4947 42.6587 68.2039C42.6587 68.2039 49.1675 77.5364 60.4355 81.7667C55.0332 86.2196 51.5828 92.9612 51.5828 100.493C51.5828 113.87 62.4669 124.754 75.846 124.754C89.223 124.754 100.107 113.87 100.107 100.493C100.107 87.1159 89.223 76.2318 75.846 76.2318Z" fill="#47795B"/>
</g>
<path d="M97.9977 22.4788C56.2906 22.4788 22.4785 56.2908 22.4785 97.9979C22.4785 139.707 56.2906 173.519 97.9977 173.519C139.707 173.519 173.519 139.707 173.519 97.9979C173.519 56.2908 139.707 22.4788 97.9977 22.4788Z" stroke="#47795B" stroke-width="6"/>
<mask id="mask3_694_148" style="mask-type:luminance" maskUnits="userSpaceOnUse" x="270" y="113" width="11" height="15">
<path d="M270.171 113.941H280.102V127.596H270.171V113.941Z" fill="white"/>
</mask>
<g mask="url(#mask3_694_148)">
<path d="M275.044 127.765L270.489 118.658L275.044 114.103L279.597 118.658L275.044 127.765Z" fill="#47795B"/>
</g>
<path d="M292.096 97.4855V93.1306C291.58 92.9918 291.035 92.9163 290.473 92.9163C287.053 92.9163 284.281 95.6888 284.281 99.1086C284.281 102.528 287.053 105.301 290.473 105.301C293.895 105.301 296.668 102.528 296.668 99.1086C296.668 98.5472 296.592 98.0041 296.451 97.4855H292.096Z" fill="#47795B"/>
<path d="M257.488 97.4855V93.1306C258.004 92.9918 258.547 92.9163 259.109 92.9163C262.531 92.9163 265.303 95.6888 265.303 99.1086C265.303 102.528 262.531 105.301 259.109 105.301C255.689 105.301 252.917 102.528 252.917 99.1086C252.917 98.5472 252.992 98.0041 253.133 97.4855H257.488Z" fill="#47795B"/>
<mask id="mask4_694_148" style="mask-type:luminance" maskUnits="userSpaceOnUse" x="274" y="73" width="54" height="47">
<path d="M274.875 73.1733H327.527V119.691H274.875V73.1733Z" fill="white"/>
</mask>
<g mask="url(#mask4_694_148)">
<path d="M294.152 114.889C286.214 114.889 279.756 108.431 279.756 100.493C279.756 92.5549 286.214 86.095 294.152 86.095C302.092 86.095 308.55 92.5549 308.55 100.493C308.55 108.431 302.092 114.889 294.152 114.889ZM327.339 73.2897C316.277 80.5825 294.152 81.3175 294.152 81.3175C283.58 81.3175 274.979 89.9191 274.979 100.493C274.979 111.065 283.58 119.666 294.152 119.666C304.726 119.666 313.327 111.065 313.327 100.493C313.327 95.4152 311.341 90.797 308.107 87.3629C320.269 83.4307 327.339 73.2897 327.339 73.2897Z" fill="#47795B"/>
</g>
<mask id="mask5_694_148" style="mask-type:luminance" maskUnits="userSpaceOnUse" x="216" y="68" width="59" height="57">
<path d="M216.661 68.1855H274.352V124.917H216.661V68.1855Z" fill="white"/>
</mask>
<g mask="url(#mask5_694_148)">
<path d="M249.846 119.977C239.103 119.977 230.36 111.236 230.36 100.493C230.36 89.7496 239.103 81.0072 249.846 81.0072C260.589 81.0072 269.33 89.7496 269.33 100.493C269.33 111.236 260.589 119.977 249.846 119.977ZM249.846 76.2318C249.846 76.2318 227.72 75.4947 216.659 68.2039C216.659 68.2039 223.168 77.5364 234.435 81.7667C229.033 86.2196 225.583 92.9612 225.583 100.493C225.583 113.87 236.467 124.754 249.846 124.754C263.223 124.754 274.107 113.87 274.107 100.493C274.107 87.1159 263.223 76.2318 249.846 76.2318Z" fill="#47795B"/>
</g>
<path d="M271.998 22.4788C230.291 22.4788 196.479 56.2908 196.479 97.9979C196.479 139.707 230.291 173.519 271.998 173.519C313.707 173.519 347.519 139.707 347.519 97.9979C347.519 56.2908 313.707 22.4788 271.998 22.4788Z" stroke="#47795B" stroke-width="6"/>
</svg>
