<svg width="276" height="114" viewBox="0 0 276 114" fill="none" xmlns="http://www.w3.org/2000/svg">
<g filter="url(#filter0_d_1061_1864)">
<circle cx="51.5" cy="51" r="32.5" fill="#5350BB"/>
<circle cx="51.5" cy="51" r="34" stroke="#5350B9" stroke-width="3"/>
</g>
<mask id="mask0_1061_1864" style="mask-type:luminance" maskUnits="userSpaceOnUse" x="51" y="57" width="5" height="7">
<path d="M51.7939 58.2575H54.6754V62.7196H51.7939V58.2575Z" fill="white" stroke="white" stroke-width="1.33333"/>
</mask>
<g mask="url(#mask0_1061_1864)">
<path d="M54.3185 59.724L53.197 61.9674L52.0751 59.724L53.1971 58.6021L54.3185 59.724Z" fill="white" stroke="white" stroke-width="1.33333"/>
</g>
<path d="M59.761 50.6063V51.273H60.4277H61.7011C61.7012 51.2804 61.7012 51.2878 61.7012 51.2952C61.7012 52.3783 60.8231 53.2568 59.7388 53.2568C58.6555 53.2568 57.7773 52.3785 57.7773 51.2952C57.7773 50.2119 58.6555 49.3337 59.7388 49.3337C59.7462 49.3337 59.7536 49.3337 59.761 49.3338V50.6063Z" fill="white" stroke="white" stroke-width="1.33333"/>
<path d="M45.7412 51.273H46.4079V50.6063V49.3338C46.415 49.3337 46.4221 49.3337 46.4292 49.3337C47.5135 49.3337 48.3917 50.2121 48.3917 51.2952C48.3917 52.3783 47.5135 53.2568 46.4292 53.2568C45.346 53.2568 44.4677 52.3785 44.4677 51.2952C44.4677 51.2878 44.4677 51.2804 44.4678 51.273H45.7412Z" fill="white" stroke="white" stroke-width="1.33333"/>
<mask id="mask1_1061_1864" style="mask-type:luminance" maskUnits="userSpaceOnUse" x="53" y="40" width="23" height="21">
<path d="M53.7785 40.9548H74.7924V59.3647H53.7785V40.9548Z" fill="white" stroke="white" stroke-width="1.33333"/>
</mask>
<g mask="url(#mask1_1061_1864)">
<path d="M61.2983 44.4118H61.3094L61.3205 44.4114L61.2983 43.7451C61.3205 44.4114 61.3206 44.4114 61.3208 44.4114L61.3213 44.4114L61.323 44.4113L61.3289 44.4111L61.3509 44.4103L61.4339 44.4069C61.5062 44.4038 61.6119 44.3988 61.7475 44.3913C62.0187 44.3765 62.4097 44.3518 62.8931 44.3125C63.8591 44.2339 65.197 44.0964 66.6849 43.8607C68.5122 43.5712 70.6078 43.1275 72.5265 42.4431C71.189 43.6279 69.3229 44.9308 67.016 45.6766L66.0133 46.0008L66.7358 46.768C67.9972 48.1075 68.7702 49.9061 68.7702 51.8837C68.7702 56.0024 65.418 59.3547 61.2983 59.3547C57.1796 59.3547 53.8273 56.0024 53.8273 51.8837C53.8273 47.764 57.1796 44.4118 61.2983 44.4118ZM54.5217 51.8837C54.5217 55.621 57.561 58.6603 61.2983 58.6603C65.0364 58.6603 68.0758 55.6211 68.0758 51.8837C68.0758 48.1464 65.0366 45.1062 61.2983 45.1062C57.5609 45.1062 54.5217 48.1465 54.5217 51.8837Z" fill="white" stroke="white" stroke-width="1.33333"/>
</g>
<mask id="mask2_1061_1864" style="mask-type:luminance" maskUnits="userSpaceOnUse" x="28" y="38" width="25" height="25">
<path d="M29.0751 38.8376H52.2276V61.5828H29.0751V38.8376Z" fill="white" stroke="white" stroke-width="1.33333"/>
</mask>
<g mask="url(#mask2_1061_1864)">
<path d="M42.4933 41.5869L42.4711 42.2532L42.4822 42.2536H42.4933C47.8027 42.2536 52.1238 46.5746 52.1238 51.884C52.1238 57.1934 47.8027 61.5145 42.4933 61.5145C37.1831 61.5145 32.862 57.1934 32.862 51.884C32.862 48.8955 34.2304 46.2197 36.3767 44.4506L37.2664 43.7172L36.187 43.312C34.1494 42.547 32.4864 41.3659 31.2657 40.2848C33.1842 40.969 35.2796 41.4126 37.1068 41.7022C38.5947 41.9379 39.9325 42.0755 40.8986 42.1542C41.3819 42.1935 41.773 42.2182 42.0441 42.2331C42.1797 42.2406 42.2854 42.2455 42.3577 42.2487L42.4407 42.2521L42.4627 42.2529L42.4686 42.2531L42.4703 42.2532L42.4708 42.2532C42.471 42.2532 42.4711 42.2532 42.4933 41.5869ZM33.5564 51.884C33.5564 56.8121 37.5655 60.8201 42.4933 60.8201C47.4213 60.8201 51.4294 56.812 51.4294 51.884C51.4294 46.9562 47.4214 42.9471 42.4933 42.9471C37.5654 42.9471 33.5564 46.9561 33.5564 51.884Z" fill="white" stroke="white" stroke-width="1.33333"/>
</g>
<g filter="url(#filter1_d_1061_1864)">
<circle cx="137.5" cy="63" r="32.5" fill="#5350BB"/>
<circle cx="137.5" cy="63" r="34" stroke="#5350B9" stroke-width="3"/>
</g>
<mask id="mask3_1061_1864" style="mask-type:luminance" maskUnits="userSpaceOnUse" x="137" y="69" width="5" height="7">
<path d="M137.794 70.2575H140.675V74.7196H137.794V70.2575Z" fill="white" stroke="white" stroke-width="1.33333"/>
</mask>
<g mask="url(#mask3_1061_1864)">
<path d="M140.318 71.724L139.197 73.9674L138.075 71.724L139.197 70.6021L140.318 71.724Z" fill="white" stroke="white" stroke-width="1.33333"/>
</g>
<path d="M145.761 62.6063V63.273H146.428H147.701C147.701 63.2804 147.701 63.2878 147.701 63.2952C147.701 64.3783 146.823 65.2568 145.739 65.2568C144.656 65.2568 143.777 64.3785 143.777 63.2952C143.777 62.2119 144.656 61.3337 145.739 61.3337C145.746 61.3337 145.754 61.3337 145.761 61.3338V62.6063Z" fill="white" stroke="white" stroke-width="1.33333"/>
<path d="M131.741 63.273H132.408V62.6063V61.3338C132.415 61.3337 132.422 61.3337 132.429 61.3337C133.514 61.3337 134.392 62.2121 134.392 63.2952C134.392 64.3783 133.514 65.2568 132.429 65.2568C131.346 65.2568 130.468 64.3785 130.468 63.2952C130.468 63.2878 130.468 63.2804 130.468 63.273H131.741Z" fill="white" stroke="white" stroke-width="1.33333"/>
<mask id="mask4_1061_1864" style="mask-type:luminance" maskUnits="userSpaceOnUse" x="139" y="52" width="23" height="21">
<path d="M139.778 52.9548H160.792V71.3647H139.778V52.9548Z" fill="white" stroke="white" stroke-width="1.33333"/>
</mask>
<g mask="url(#mask4_1061_1864)">
<path d="M147.298 56.4118H147.309L147.32 56.4114L147.298 55.7451C147.32 56.4114 147.321 56.4114 147.321 56.4114L147.321 56.4114L147.323 56.4113L147.329 56.4111L147.351 56.4103L147.434 56.4069C147.506 56.4038 147.612 56.3988 147.747 56.3913C148.019 56.3765 148.41 56.3518 148.893 56.3125C149.859 56.2339 151.197 56.0964 152.685 55.8607C154.512 55.5712 156.608 55.1275 158.526 54.4431C157.189 55.6279 155.323 56.9308 153.016 57.6766L152.013 58.0008L152.736 58.768C153.997 60.1075 154.77 61.9061 154.77 63.8837C154.77 68.0024 151.418 71.3547 147.298 71.3547C143.18 71.3547 139.827 68.0024 139.827 63.8837C139.827 59.764 143.18 56.4118 147.298 56.4118ZM140.522 63.8837C140.522 67.621 143.561 70.6603 147.298 70.6603C151.036 70.6603 154.076 67.6211 154.076 63.8837C154.076 60.1464 151.037 57.1062 147.298 57.1062C143.561 57.1062 140.522 60.1465 140.522 63.8837Z" fill="white" stroke="white" stroke-width="1.33333"/>
</g>
<mask id="mask5_1061_1864" style="mask-type:luminance" maskUnits="userSpaceOnUse" x="114" y="50" width="25" height="25">
<path d="M115.075 50.8376H138.228V73.5828H115.075V50.8376Z" fill="white" stroke="white" stroke-width="1.33333"/>
</mask>
<g mask="url(#mask5_1061_1864)">
<path d="M128.493 53.5869L128.471 54.2532L128.482 54.2536H128.493C133.803 54.2536 138.124 58.5746 138.124 63.884C138.124 69.1934 133.803 73.5145 128.493 73.5145C123.183 73.5145 118.862 69.1934 118.862 63.884C118.862 60.8955 120.23 58.2197 122.377 56.4506L123.266 55.7172L122.187 55.312C120.149 54.547 118.486 53.3659 117.266 52.2848C119.184 52.969 121.28 53.4126 123.107 53.7022C124.595 53.9379 125.933 54.0755 126.899 54.1542C127.382 54.1935 127.773 54.2182 128.044 54.2331C128.18 54.2406 128.285 54.2455 128.358 54.2487L128.441 54.2521L128.463 54.2529L128.469 54.2531L128.47 54.2532L128.471 54.2532C128.471 54.2532 128.471 54.2532 128.493 53.5869ZM119.556 63.884C119.556 68.8121 123.566 72.8201 128.493 72.8201C133.421 72.8201 137.429 68.812 137.429 63.884C137.429 58.9562 133.421 54.9471 128.493 54.9471C123.565 54.9471 119.556 58.9561 119.556 63.884Z" fill="white" stroke="white" stroke-width="1.33333"/>
</g>
<g filter="url(#filter2_d_1061_1864)">
<circle cx="224.5" cy="51" r="32.5" fill="#5350BB"/>
<circle cx="224.5" cy="51" r="34" stroke="#5350B9" stroke-width="3"/>
</g>
<mask id="mask6_1061_1864" style="mask-type:luminance" maskUnits="userSpaceOnUse" x="224" y="57" width="5" height="7">
<path d="M224.794 58.2575H227.675V62.7196H224.794V58.2575Z" fill="white" stroke="white" stroke-width="1.33333"/>
</mask>
<g mask="url(#mask6_1061_1864)">
<path d="M227.318 59.724L226.197 61.9674L225.075 59.724L226.197 58.6021L227.318 59.724Z" fill="white" stroke="white" stroke-width="1.33333"/>
</g>
<path d="M232.761 50.6063V51.273H233.427H234.701C234.701 51.2804 234.701 51.2878 234.701 51.2952C234.701 52.3783 233.823 53.2568 232.739 53.2568C231.655 53.2568 230.777 52.3785 230.777 51.2952C230.777 50.2119 231.655 49.3337 232.739 49.3337C232.746 49.3337 232.753 49.3337 232.761 49.3338V50.6063Z" fill="white" stroke="white" stroke-width="1.33333"/>
<path d="M218.741 51.273H219.408V50.6063V49.3338C219.415 49.3337 219.422 49.3337 219.429 49.3337C220.513 49.3337 221.391 50.2121 221.391 51.2952C221.391 52.3783 220.513 53.2568 219.429 53.2568C218.346 53.2568 217.467 52.3785 217.467 51.2952C217.467 51.2878 217.467 51.2804 217.468 51.273H218.741Z" fill="white" stroke="white" stroke-width="1.33333"/>
<mask id="mask7_1061_1864" style="mask-type:luminance" maskUnits="userSpaceOnUse" x="226" y="40" width="23" height="21">
<path d="M226.778 40.9548H247.792V59.3647H226.778V40.9548Z" fill="white" stroke="white" stroke-width="1.33333"/>
</mask>
<g mask="url(#mask7_1061_1864)">
<path d="M234.298 44.4118H234.309L234.32 44.4114L234.298 43.7451C234.32 44.4114 234.32 44.4114 234.32 44.4114L234.321 44.4114L234.323 44.4113L234.328 44.4111L234.35 44.4103L234.433 44.4069C234.506 44.4038 234.611 44.3988 234.747 44.3913C235.018 44.3765 235.409 44.3518 235.893 44.3125C236.859 44.2339 238.196 44.0964 239.684 43.8607C241.512 43.5712 243.607 43.1275 245.526 42.4431C244.189 43.6279 242.322 44.9308 240.016 45.6766L239.013 46.0008L239.735 46.768C240.997 48.1075 241.77 49.9061 241.77 51.8837C241.77 56.0024 238.418 59.3547 234.298 59.3547C230.179 59.3547 226.827 56.0024 226.827 51.8837C226.827 47.764 230.179 44.4118 234.298 44.4118ZM227.521 51.8837C227.521 55.621 230.561 58.6603 234.298 58.6603C238.036 58.6603 241.075 55.6211 241.075 51.8837C241.075 48.1464 238.036 45.1062 234.298 45.1062C230.56 45.1062 227.521 48.1465 227.521 51.8837Z" fill="white" stroke="white" stroke-width="1.33333"/>
</g>
<mask id="mask8_1061_1864" style="mask-type:luminance" maskUnits="userSpaceOnUse" x="201" y="38" width="25" height="25">
<path d="M202.075 38.8376H225.227V61.5828H202.075V38.8376Z" fill="white" stroke="white" stroke-width="1.33333"/>
</mask>
<g mask="url(#mask8_1061_1864)">
<path d="M215.493 41.5869L215.471 42.2532L215.482 42.2536H215.493C220.802 42.2536 225.123 46.5746 225.123 51.884C225.123 57.1934 220.802 61.5145 215.493 61.5145C210.183 61.5145 205.862 57.1934 205.862 51.884C205.862 48.8955 207.23 46.2197 209.376 44.4506L210.266 43.7172L209.187 43.312C207.149 42.547 205.486 41.3659 204.265 40.2848C206.184 40.969 208.279 41.4126 210.106 41.7022C211.594 41.9379 212.932 42.0755 213.898 42.1542C214.381 42.1935 214.772 42.2182 215.044 42.2331C215.179 42.2406 215.285 42.2455 215.357 42.2487L215.44 42.2521L215.462 42.2529L215.468 42.2531L215.47 42.2532L215.47 42.2532C215.471 42.2532 215.471 42.2532 215.493 41.5869ZM206.556 51.884C206.556 56.8121 210.565 60.8201 215.493 60.8201C220.421 60.8201 224.429 56.812 224.429 51.884C224.429 46.9562 220.421 42.9471 215.493 42.9471C210.565 42.9471 206.556 46.9561 206.556 51.884Z" fill="white" stroke="white" stroke-width="1.33333"/>
</g>
<defs>
<filter id="filter0_d_1061_1864" x="0.9" y="0.4" width="101.2" height="101.2" filterUnits="userSpaceOnUse" color-interpolation-filters="sRGB">
<feFlood flood-opacity="0" result="BackgroundImageFix"/>
<feColorMatrix in="SourceAlpha" type="matrix" values="0 0 0 0 0 0 0 0 0 0 0 0 0 0 0 0 0 0 127 0" result="hardAlpha"/>
<feMorphology radius="0.1" operator="dilate" in="SourceAlpha" result="effect1_dropShadow_1061_1864"/>
<feOffset/>
<feGaussianBlur stdDeviation="7.5"/>
<feComposite in2="hardAlpha" operator="out"/>
<feColorMatrix type="matrix" values="0 0 0 0 0 0 0 0 0 0 0 0 0 0 0 0 0 0 0.3 0"/>
<feBlend mode="normal" in2="BackgroundImageFix" result="effect1_dropShadow_1061_1864"/>
<feBlend mode="normal" in="SourceGraphic" in2="effect1_dropShadow_1061_1864" result="shape"/>
</filter>
<filter id="filter1_d_1061_1864" x="86.9" y="12.4" width="101.2" height="101.2" filterUnits="userSpaceOnUse" color-interpolation-filters="sRGB">
<feFlood flood-opacity="0" result="BackgroundImageFix"/>
<feColorMatrix in="SourceAlpha" type="matrix" values="0 0 0 0 0 0 0 0 0 0 0 0 0 0 0 0 0 0 127 0" result="hardAlpha"/>
<feMorphology radius="0.1" operator="dilate" in="SourceAlpha" result="effect1_dropShadow_1061_1864"/>
<feOffset/>
<feGaussianBlur stdDeviation="7.5"/>
<feComposite in2="hardAlpha" operator="out"/>
<feColorMatrix type="matrix" values="0 0 0 0 0 0 0 0 0 0 0 0 0 0 0 0 0 0 0.3 0"/>
<feBlend mode="normal" in2="BackgroundImageFix" result="effect1_dropShadow_1061_1864"/>
<feBlend mode="normal" in="SourceGraphic" in2="effect1_dropShadow_1061_1864" result="shape"/>
</filter>
<filter id="filter2_d_1061_1864" x="173.9" y="0.4" width="101.2" height="101.2" filterUnits="userSpaceOnUse" color-interpolation-filters="sRGB">
<feFlood flood-opacity="0" result="BackgroundImageFix"/>
<feColorMatrix in="SourceAlpha" type="matrix" values="0 0 0 0 0 0 0 0 0 0 0 0 0 0 0 0 0 0 127 0" result="hardAlpha"/>
<feMorphology radius="0.1" operator="dilate" in="SourceAlpha" result="effect1_dropShadow_1061_1864"/>
<feOffset/>
<feGaussianBlur stdDeviation="7.5"/>
<feComposite in2="hardAlpha" operator="out"/>
<feColorMatrix type="matrix" values="0 0 0 0 0 0 0 0 0 0 0 0 0 0 0 0 0 0 0.3 0"/>
<feBlend mode="normal" in2="BackgroundImageFix" result="effect1_dropShadow_1061_1864"/>
<feBlend mode="normal" in="SourceGraphic" in2="effect1_dropShadow_1061_1864" result="shape"/>
</filter>
</defs>
</svg>
