<svg width="103" height="102" viewBox="0 0 103 102" fill="none" xmlns="http://www.w3.org/2000/svg">
<g filter="url(#filter0_d_1061_1952)">
<circle cx="51.5" cy="51" r="32.5" fill="#EAEAEA"/>
<circle cx="51.5" cy="51" r="34" stroke="#EAEAEA" stroke-width="3"/>
</g>
<mask id="mask0_1061_1952" style="mask-type:luminance" maskUnits="userSpaceOnUse" x="51" y="57" width="5" height="7">
<path d="M51.7939 58.2575H54.6754V62.7196H51.7939V58.2575Z" fill="white" stroke="white" stroke-width="1.33333"/>
</mask>
<g mask="url(#mask0_1061_1952)">
<path d="M54.3185 59.724L53.197 61.9674L52.0751 59.724L53.1971 58.6021L54.3185 59.724Z" fill="#414141" stroke="#414141" stroke-width="1.33333"/>
</g>
<path d="M59.761 50.6063V51.273H60.4277H61.7011C61.7012 51.2804 61.7012 51.2878 61.7012 51.2952C61.7012 52.3783 60.8231 53.2568 59.7388 53.2568C58.6555 53.2568 57.7773 52.3785 57.7773 51.2952C57.7773 50.2119 58.6555 49.3337 59.7388 49.3337C59.7462 49.3337 59.7536 49.3337 59.761 49.3338V50.6063Z" fill="#414141" stroke="#414141" stroke-width="1.33333"/>
<path d="M45.7412 51.273H46.4079V50.6063V49.3338C46.415 49.3337 46.4221 49.3337 46.4292 49.3337C47.5135 49.3337 48.3917 50.2121 48.3917 51.2952C48.3917 52.3783 47.5135 53.2568 46.4292 53.2568C45.346 53.2568 44.4677 52.3785 44.4677 51.2952C44.4677 51.2878 44.4677 51.2804 44.4678 51.273H45.7412Z" fill="#414141" stroke="#414141" stroke-width="1.33333"/>
<mask id="mask1_1061_1952" style="mask-type:luminance" maskUnits="userSpaceOnUse" x="53" y="40" width="23" height="21">
<path d="M53.7785 40.9548H74.7924V59.3647H53.7785V40.9548Z" fill="white" stroke="white" stroke-width="1.33333"/>
</mask>
<g mask="url(#mask1_1061_1952)">
<path d="M61.2983 44.4118H61.3094L61.3205 44.4114L61.2983 43.7451C61.3205 44.4114 61.3206 44.4114 61.3208 44.4114L61.3213 44.4114L61.323 44.4113L61.3289 44.4111L61.3509 44.4103L61.4339 44.4069C61.5062 44.4038 61.6119 44.3988 61.7475 44.3913C62.0187 44.3765 62.4097 44.3518 62.8931 44.3125C63.8591 44.2339 65.197 44.0964 66.6849 43.8607C68.5122 43.5712 70.6078 43.1275 72.5265 42.4431C71.189 43.6279 69.3229 44.9308 67.016 45.6766L66.0133 46.0008L66.7358 46.768C67.9972 48.1075 68.7702 49.9061 68.7702 51.8837C68.7702 56.0024 65.418 59.3547 61.2983 59.3547C57.1796 59.3547 53.8273 56.0024 53.8273 51.8837C53.8273 47.764 57.1796 44.4118 61.2983 44.4118ZM54.5217 51.8837C54.5217 55.621 57.561 58.6603 61.2983 58.6603C65.0364 58.6603 68.0758 55.6211 68.0758 51.8837C68.0758 48.1464 65.0366 45.1062 61.2983 45.1062C57.5609 45.1062 54.5217 48.1465 54.5217 51.8837Z" fill="#414141" stroke="#414141" stroke-width="1.33333"/>
</g>
<mask id="mask2_1061_1952" style="mask-type:luminance" maskUnits="userSpaceOnUse" x="28" y="38" width="25" height="25">
<path d="M29.0751 38.8376H52.2276V61.5828H29.0751V38.8376Z" fill="white" stroke="white" stroke-width="1.33333"/>
</mask>
<g mask="url(#mask2_1061_1952)">
<path d="M42.4933 41.5869L42.4711 42.2532L42.4822 42.2536H42.4933C47.8027 42.2536 52.1238 46.5746 52.1238 51.884C52.1238 57.1934 47.8027 61.5145 42.4933 61.5145C37.1831 61.5145 32.862 57.1934 32.862 51.884C32.862 48.8955 34.2304 46.2197 36.3767 44.4506L37.2664 43.7172L36.187 43.312C34.1494 42.547 32.4864 41.3659 31.2657 40.2848C33.1842 40.969 35.2796 41.4126 37.1068 41.7022C38.5947 41.9379 39.9325 42.0755 40.8986 42.1542C41.3819 42.1935 41.773 42.2182 42.0441 42.2331C42.1797 42.2406 42.2854 42.2455 42.3577 42.2487L42.4407 42.2521L42.4627 42.2529L42.4686 42.2531L42.4703 42.2532L42.4708 42.2532C42.471 42.2532 42.4711 42.2532 42.4933 41.5869ZM33.5564 51.884C33.5564 56.8121 37.5655 60.8201 42.4933 60.8201C47.4213 60.8201 51.4294 56.812 51.4294 51.884C51.4294 46.9562 47.4214 42.9471 42.4933 42.9471C37.5654 42.9471 33.5564 46.9561 33.5564 51.884Z" fill="#414141" stroke="#414141" stroke-width="1.33333"/>
</g>
<defs>
<filter id="filter0_d_1061_1952" x="0.8" y="0.3" width="101.4" height="101.4" filterUnits="userSpaceOnUse" color-interpolation-filters="sRGB">
<feFlood flood-opacity="0" result="BackgroundImageFix"/>
<feColorMatrix in="SourceAlpha" type="matrix" values="0 0 0 0 0 0 0 0 0 0 0 0 0 0 0 0 0 0 127 0" result="hardAlpha"/>
<feMorphology radius="0.2" operator="dilate" in="SourceAlpha" result="effect1_dropShadow_1061_1952"/>
<feOffset/>
<feGaussianBlur stdDeviation="7.5"/>
<feComposite in2="hardAlpha" operator="out"/>
<feColorMatrix type="matrix" values="0 0 0 0 0 0 0 0 0 0 0 0 0 0 0 0 0 0 0.25 0"/>
<feBlend mode="normal" in2="BackgroundImageFix" result="effect1_dropShadow_1061_1952"/>
<feBlend mode="normal" in="SourceGraphic" in2="effect1_dropShadow_1061_1952" result="shape"/>
</filter>
</defs>
</svg>
