<svg width="46" height="46" viewBox="0 0 46 46" fill="none" xmlns="http://www.w3.org/2000/svg">
<path d="M35.9593 0.191406H9.80709C4.39078 0.191406 0 4.58219 0 9.99849V36.1507C0 41.567 4.39078 45.9578 9.80709 45.9578H35.9593C41.3756 45.9578 45.7664 41.567 45.7664 36.1507V9.99849C45.7664 4.58219 41.3756 0.191406 35.9593 0.191406Z" fill="url(#paint0_radial_1063_4222)"/>
<path d="M35.9593 0.191406H9.80709C4.39078 0.191406 0 4.58219 0 9.99849V36.1507C0 41.567 4.39078 45.9578 9.80709 45.9578H35.9593C41.3756 45.9578 45.7664 41.567 45.7664 36.1507V9.99849C45.7664 4.58219 41.3756 0.191406 35.9593 0.191406Z" fill="url(#paint1_radial_1063_4222)"/>
<path d="M35.9593 0.191406H9.80709C4.39078 0.191406 0 4.58219 0 9.99849V36.1507C0 41.567 4.39078 45.9578 9.80709 45.9578H35.9593C41.3756 45.9578 45.7664 41.567 45.7664 36.1507V9.99849C45.7664 4.58219 41.3756 0.191406 35.9593 0.191406Z" fill="url(#paint2_radial_1063_4222)"/>
<path d="M34.3249 14.0846C34.3249 15.4386 33.2272 16.5364 31.8732 16.5364C30.5191 16.5364 29.4214 15.4386 29.4214 14.0846C29.4214 12.7305 30.5191 11.6328 31.8732 11.6328C33.2272 11.6328 34.3249 12.7305 34.3249 14.0846Z" fill="white"/>
<path fill-rule="evenodd" clip-rule="evenodd" d="M22.8835 31.2465C27.3971 31.2465 31.0561 27.5875 31.0561 23.0739C31.0561 18.5604 27.3971 14.9014 22.8835 14.9014C18.37 14.9014 14.7109 18.5604 14.7109 23.0739C14.7109 27.5875 18.37 31.2465 22.8835 31.2465ZM22.8835 27.9775C25.5917 27.9775 27.7871 25.7822 27.7871 23.0739C27.7871 20.3657 25.5917 18.1704 22.8835 18.1704C20.1753 18.1704 17.98 20.3657 17.98 23.0739C17.98 25.7822 20.1753 27.9775 22.8835 27.9775Z" fill="white"/>
<path fill-rule="evenodd" clip-rule="evenodd" d="M6.53809 22.4218C6.53809 16.9293 6.53809 14.183 7.60699 12.0852C8.54723 10.2399 10.0475 8.73961 11.8929 7.79938C13.9907 6.73047 16.737 6.73047 22.2294 6.73047H23.537C29.0295 6.73047 31.7758 6.73047 33.8735 7.79938C35.7189 8.73961 37.2192 10.2399 38.1594 12.0852C39.2284 14.183 39.2284 16.9293 39.2284 22.4218V23.7294C39.2284 29.2219 39.2284 31.9682 38.1594 34.0659C37.2192 35.9113 35.7189 37.4116 33.8735 38.3518C31.7758 39.4208 29.0295 39.4208 23.537 39.4208H22.2294C16.737 39.4208 13.9907 39.4208 11.8929 38.3518C10.0475 37.4116 8.54723 35.9113 7.60699 34.0659C6.53809 31.9682 6.53809 29.2219 6.53809 23.7294V22.4218ZM22.2294 9.9995H23.537C26.3373 9.9995 28.2407 10.002 29.7121 10.1222C31.1454 10.2393 31.8783 10.4516 32.3896 10.7121C33.6197 11.3389 34.6199 12.3391 35.2467 13.5693C35.5072 14.0806 35.7196 14.8135 35.8366 16.2468C35.9567 17.7182 35.9593 19.6216 35.9593 22.4218V23.7294C35.9593 26.5297 35.9567 28.4331 35.8366 29.9045C35.7196 31.3378 35.5072 32.0707 35.2467 32.5819C34.6199 33.8121 33.6197 34.8122 32.3896 35.4391C31.8783 35.6996 31.1454 35.9119 29.7121 36.029C28.2407 36.1491 26.3373 36.1517 23.537 36.1517H22.2294C19.4292 36.1517 17.5258 36.1491 16.0544 36.029C14.6211 35.9119 13.8882 35.6996 13.3769 35.4391C12.1467 34.8122 11.1466 33.8121 10.5197 32.5819C10.2592 32.0707 10.047 31.3378 9.92987 29.9045C9.80966 28.4331 9.80711 26.5297 9.80711 23.7294V22.4218C9.80711 19.6216 9.80966 17.7182 9.92987 16.2468C10.047 14.8135 10.2592 14.0806 10.5197 13.5693C11.1466 12.3391 12.1467 11.3389 13.3769 10.7121C13.8882 10.4516 14.6211 10.2393 16.0544 10.1222C17.5258 10.002 19.4292 9.9995 22.2294 9.9995Z" fill="white"/>
<defs>
<radialGradient id="paint0_radial_1063_4222" cx="0" cy="0" r="1" gradientUnits="userSpaceOnUse" gradientTransform="translate(16.3451 34.5162) rotate(-55.3758) scale(41.7122)">
<stop stop-color="#B13589"/>
<stop offset="0.79309" stop-color="#C62F94"/>
<stop offset="1" stop-color="#8A3AC8"/>
</radialGradient>
<radialGradient id="paint1_radial_1063_4222" cx="0" cy="0" r="1" gradientUnits="userSpaceOnUse" gradientTransform="translate(14.7106 47.5923) rotate(-65.1363) scale(36.9305)">
<stop stop-color="#E0E8B7"/>
<stop offset="0.444662" stop-color="#FB8A2E"/>
<stop offset="0.71474" stop-color="#E2425C"/>
<stop offset="1" stop-color="#E2425C" stop-opacity="0"/>
</radialGradient>
<radialGradient id="paint2_radial_1063_4222" cx="0" cy="0" r="1" gradientUnits="userSpaceOnUse" gradientTransform="translate(-2.45177 1.82592) rotate(-8.1301) scale(63.5677 13.5965)">
<stop offset="0.156701" stop-color="#406ADC"/>
<stop offset="0.467799" stop-color="#6A45BE"/>
<stop offset="1" stop-color="#6A45BE" stop-opacity="0"/>
</radialGradient>
</defs>
</svg>
